<?xml version="1.0" encoding="UTF-8" standalone="no"?>
<svg
   width="252"
   height="110"
   viewBox="0 0 252 110"
   version="1.1"
   id="svg10"
   sodipodi:docname="logo.svg"
   inkscape:version="1.1 (c68e22c387, 2021-05-23)"
   xmlns:inkscape="http://www.inkscape.org/namespaces/inkscape"
   xmlns:sodipodi="http://sodipodi.sourceforge.net/DTD/sodipodi-0.dtd"
   xmlns="http://www.w3.org/2000/svg"
   xmlns:svg="http://www.w3.org/2000/svg">
  <defs
     id="defs14" />
  <sodipodi:namedview
     id="namedview12"
     pagecolor="#505050"
     bordercolor="#ffffff"
     borderopacity="1"
     inkscape:pageshadow="0"
     inkscape:pageopacity="0"
     inkscape:pagecheckerboard="1"
     showgrid="false"
     inkscape:zoom="2.1090909"
     inkscape:cx="121.37931"
     inkscape:cy="43.62069"
     inkscape:window-width="1280"
     inkscape:window-height="650"
     inkscape:window-x="-6"
     inkscape:window-y="-6"
     inkscape:window-maximized="1"
     inkscape:current-layer="svg10" />
  <path
     fill="#ffffff"
     d="M 0,-48.140023 H 252 V 120.90518 H 0 Z"
     id="path2"
     style="stroke-width:1.23967" />
  <path
     fill="#f8d200"
     d="m 66.008419,57.628292 h 2.671403 V 93.083656 H 62.467626 V 57.628292 Z"
     id="path4"
     style="stroke-width:1.58072" />
  <path
     fill="#e30613"
     d="m 66.008419,21.99905 h 2.671403 V 57.628292 H 62.467626 V 21.99905 Z"
     id="path6"
     style="stroke-width:1.58072" />
  <path
     fill="#1d1d1b"
     d="m 68.679822,-13.266629 v 35.439557 h -6.212196 v -35.439557 z m 20.817973,3.3353014 a 4.7421352,4.7421352 0 0 1 -0.189685,1.3277982 3.1614234,3.1614234 0 0 1 -0.521634,0.9800413 2.5607531,2.5607531 0 0 1 -0.758742,0.6638989 3.7620939,3.7620939 0 0 1 -0.901005,0.3793708 3.240459,3.240459 0 0 1 1.944274,1.1381125 3.6988654,3.6988654 0 0 1 0.806163,2.4659103 4.2205003,4.2205003 0 0 1 -0.300334,1.5807117 3.1614234,3.1614234 0 0 1 -0.916813,1.23295519 4.2521145,4.2521145 0 0 1 -1.580712,0.82197008 7.9035587,7.9035587 0 0 1 -2.260418,0.30033523 H 81.862958 V -13.646 h 2.797859 a 8.0774369,8.0774369 0 0 1 2.212998,0.268721 4.1730789,4.1730789 0 0 1 1.580711,0.742934 2.8452811,2.8452811 0 0 1 0.853584,1.169727 4.2363075,4.2363075 0 0 1 0.189685,1.5332904 z m -1.849432,0 a 2.2288035,2.2288035 0 0 0 -0.71132,-1.6755544 3.3511088,3.3511088 0 0 0 -2.260418,-0.648092 h -0.995849 v 5.0266639 h 0.948428 a 3.1614234,3.1614234 0 0 0 2.212996,-0.6638991 2.6555957,2.6555957 0 0 0 0.806163,-1.9758899 z m 0.268722,6.7022181 a 2.3394533,2.3394533 0 0 0 -0.77455,-1.8652398 3.1614234,3.1614234 0 0 0 -2.197189,-0.6797061 h -1.26457 v 5.16892742 h 1.138113 a 3.5249872,3.5249872 0 0 0 2.35526,-0.64809182 2.3868747,2.3868747 0 0 0 0.742936,-1.9126612 z M 99.219168,0.84912677 H 97.638462 V -0.28898569 A 2.0549252,2.0549252 0 0 1 97.353933,0.07457802 2.4975245,2.4975245 0 0 1 96.816491,0.53298443 2.8452811,2.8452811 0 0 1 96.026139,0.92816236 3.2562662,3.2562662 0 0 1 94.998667,1.1020407 3.5882156,3.5882156 0 0 1 93.78152,0.89654813 2.1655751,2.1655751 0 0 1 92.864717,0.24845632 2.8610883,2.8610883 0 0 1 92.295658,-0.88965615 5.8802477,5.8802477 0 0 1 92.090168,-2.628439 v -6.591568 h 1.707166 v 6.5283395 a 3.1614234,3.1614234 0 0 0 0.410981,1.80201135 1.4700619,1.4700619 0 0 0 1.280383,0.52163486 2.023311,2.023311 0 0 0 1.23295,-0.36356366 4.4101857,4.4101857 0 0 0 0.806167,-0.72712745 V -9.220007 h 1.707167 z m 8.140672,0 V -5.6159842 a 3.0349665,3.0349665 0 0 0 -0.4268,-1.8336256 1.5807118,1.5807118 0 0 0 -1.32779,-0.5690562 2.1655751,2.1655751 0 0 0 -1.26457,0.3793708 5.0108562,5.0108562 0 0 0 -0.79035,0.7429345 v 7.79290883 h -1.70717 V -9.220007 h 1.5807 v 1.1381124 a 2.0549252,2.0549252 0 0 1 0.28453,-0.3635636 2.9559309,2.9559309 0 0 1 0.53745,-0.4584065 3.1614234,3.1614234 0 0 1 0.80616,-0.3951779 3.0349665,3.0349665 0 0 1 1.05908,-0.1738782 3.5882156,3.5882156 0 0 1 1.28037,0.1738782 2.1339608,2.1339608 0 0 1 0.93262,0.6480919 3.1614234,3.1614234 0 0 1 0.58486,1.1381124 5.8802477,5.8802477 0 0 1 0.20549,1.7387829 v 6.65479641 z m 3.80952,-4.91601347 a 7.0973957,7.0973957 0 0 1 0.39517,-2.5765601 4.7421352,4.7421352 0 0 1 1.04327,-1.5807118 3.4775658,3.4775658 0 0 1 1.42264,-0.9010057 5.0582776,5.0582776 0 0 1 1.58071,-0.2687209 3.904358,3.904358 0 0 1 0.85359,0.079035 2.4975245,2.4975245 0 0 1 0.58486,0.1738783 v -4.9002061 l 1.70717,-0.189685 V 0.8807408 h -1.58071 v -1.07488373 a 2.6872099,2.6872099 0 0 1 -0.30034,0.37937078 2.023311,2.023311 0 0 1 -0.4584,0.44259929 2.6555957,2.6555957 0 0 1 -0.72713,0.37937076 3.4143374,3.4143374 0 0 1 -1.04328,0.1580712 3.3353018,3.3353018 0 0 1 -1.35941,-0.28452809 2.8768953,2.8768953 0 0 1 -1.1223,-0.9168128 4.5998711,4.5998711 0 0 1 -0.77455,-1.58071171 8.7255288,8.7255288 0 0 1 -0.22129,-2.3868748 z m 3.99919,3.65144414 a 2.1023466,2.1023466 0 0 0 0.71133,-0.11064982 2.5607531,2.5607531 0 0 0 0.55324,-0.26872101 2.3394533,2.3394533 0 0 0 0.63229,-0.61647761 v -6.322847 a 2.3710676,2.3710676 0 0 0 -0.53745,-0.2529138 2.5449459,2.5449459 0 0 0 -0.77454,-0.1106498 2.9085096,2.9085096 0 0 0 -1.09069,0.2054924 2.1023466,2.1023466 0 0 0 -0.90101,0.6638991 3.1614234,3.1614234 0 0 0 -0.60067,1.2013409 6.3228469,6.3228469 0 0 0 -0.2213,1.8178184 7.271274,7.271274 0 0 0 0.17388,1.75459 3.3511088,3.3511088 0 0 0 0.50582,1.1381125 1.9126612,1.9126612 0 0 0 0.69552,0.63228473 1.9758896,1.9758896 0 0 0 0.85358,0.18968541 z m 12.6457,-5.45345554 v 1.9758897 h -5.21635 a 4.3943787,4.3943787 0 0 0 0.75874,2.6239814 2.4026819,2.4026819 0 0 0 1.97589,0.85358444 2.829474,2.829474 0 0 0 0.80616,-0.11064982 3.1614234,3.1614234 0 0 0 1.05908,-0.55324922 l 0.26873,-0.2212996 0.63228,1.20134094 -0.31615,0.30033523 a 2.8136669,2.8136669 0 0 1 -0.56906,0.39517793 3.8727437,3.8727437 0 0 1 -0.88519,0.3635637 4.7421352,4.7421352 0 0 1 -1.24877,0.1422641 4.3311501,4.3311501 0 0 1 -1.72297,-0.31614239 3.1614234,3.1614234 0 0 1 -1.29618,-0.98004124 4.584064,4.584064 0 0 1 -0.83778,-1.69136157 9.1365138,9.1365138 0 0 1 -0.30033,-2.4501032 7.8087159,7.8087159 0 0 1 0.31613,-2.3394534 4.584064,4.584064 0 0 1 0.82198,-1.5807117 3.3985302,3.3985302 0 0 1 1.23296,-0.9326199 3.7620939,3.7620939 0 0 1 1.5807,-0.3161423 2.8927025,2.8927025 0 0 1 2.27623,0.9168127 4.0782363,4.0782363 0 0 1 0.79035,2.7820527 z m -3.16142,-2.2762249 a 1.75459,1.75459 0 0 0 -1.47007,0.7587417 4.2679217,4.2679217 0 0 0 -0.63229,2.1971892 H 126.36 a 1.9442754,1.9442754 0 0 0 0,-0.3003352 v -0.4425993 a 2.7030171,2.7030171 0 0 0 -0.4268,-1.5807117 1.4226406,1.4226406 0 0 0 -1.24876,-0.5690563 z m 9.84783,0.9168129 a 4.8843992,4.8843992 0 0 0 -0.61648,-0.5216349 1.8652398,1.8652398 0 0 0 -1.15392,-0.3319496 1.5807118,1.5807118 0 0 0 -1.02746,0.3161424 0.98004127,0.98004127 0 0 0 -0.36357,0.7587417 1.3910263,1.3910263 0 0 0 0.33195,0.948427 5.3428056,5.3428056 0 0 0 0.99586,0.7903558 l 0.63228,0.3793709 a 6.4493039,6.4493039 0 0 1 1.58071,1.3119907 2.9717381,2.9717381 0 0 1 -0.2371,3.85693666 3.2878804,3.2878804 0 0 1 -2.38689,0.82197014 4.0782363,4.0782363 0 0 1 -1.07488,-0.12645698 5.121506,5.121506 0 0 1 -0.82197,-0.30033523 2.6714029,2.6714029 0 0 1 -0.56905,-0.3635637 2.7662455,2.7662455 0 0 1 -0.37937,-0.3635637 l 0.82197,-1.35941209 0.30033,0.3003352 a 3.6988654,3.6988654 0 0 0 0.4268,0.31614241 3.1614234,3.1614234 0 0 0 0.56905,0.26872101 2.4184889,2.4184889 0 0 0 0.74294,0.11064982 1.75459,1.75459 0 0 0 1.16972,-0.34775661 1.0116555,1.0116555 0 0 0 0.39518,-0.82197013 2.0865395,2.0865395 0 0 0 -0.0948,-0.6164776 1.4542548,1.4542548 0 0 0 -0.28453,-0.4742135 2.6555957,2.6555957 0 0 0 -0.4584,-0.3951779 l -0.6481,-0.4267922 -0.63229,-0.3951779 a 6.3228469,6.3228469 0 0 1 -1.47006,-1.2961837 2.6872099,2.6872099 0 0 1 -0.53744,-1.7229758 2.4026819,2.4026819 0 0 1 0.85358,-1.8652398 2.6555957,2.6555957 0 0 1 0.93263,-0.5532491 3.1614234,3.1614234 0 0 1 1.13811,-0.2054925 4.4101857,4.4101857 0 0 1 1.01165,0.1106498 2.9401238,2.9401238 0 0 1 0.72713,0.3003352 3.5882156,3.5882156 0 0 1 0.50583,0.3477566 l 0.33195,0.3161424 z m 8.33035,8.07743687 V -5.6159842 a 3.4143374,3.4143374 0 0 0 -0.34776,-1.7862043 1.3277979,1.3277979 0 0 0 -1.16972,-0.5532491 2.3552605,2.3552605 0 0 0 -0.74294,0.1106498 2.7820527,2.7820527 0 0 0 -0.58486,0.268721 2.3868747,2.3868747 0 0 0 -0.4426,0.3477567 l -0.31614,0.3319494 v 7.80871594 h -1.70717 V -9.220007 h 1.58071 v 1.1381124 a 4.0466221,4.0466221 0 0 1 0.31614,-0.410985 2.9559309,2.9559309 0 0 1 0.53744,-0.4584063 2.4975245,2.4975245 0 0 1 0.74294,-0.3635638 2.7188241,2.7188241 0 0 1 0.94843,-0.1580711 2.5607531,2.5607531 0 0 1 2.4501,1.359412 2.7504384,2.7504384 0 0 1 0.39517,-0.4584063 3.1614234,3.1614234 0 0 1 0.58488,-0.4425994 3.5724085,3.5724085 0 0 1 0.75873,-0.3319494 3.6830584,3.6830584 0 0 1 0.93262,-0.1264569 c 2.05493,0 3.16143,1.2013409 3.16143,3.5882156 v 6.79706044 h -1.70718 V -5.6159842 a 2.829474,2.829474 0 0 0 -0.4426,-1.7862043 1.5807118,1.5807118 0 0 0 -1.31199,-0.5532491 1.881047,1.881047 0 0 0 -1.18552,0.3635637 4.3153431,4.3153431 0 0 0 -0.75875,0.6480918 v 7.85613734 z m 11.28628,0 h -1.67556 V -9.220007 h 1.70718 z M 153.2321,-11.654303 a 1.1223053,1.1223053 0 0 1 -0.83779,-0.347756 1.343605,1.343605 0 0 1 0,-1.754591 1.1697267,1.1697267 0 0 1 0.83779,-0.331949 1.1064982,1.1064982 0 0 1 0.82197,0.347756 1.2961836,1.2961836 0 0 1 0.31613,0.853585 1.343605,1.343605 0 0 1 -0.31613,0.901006 1.074884,1.074884 0 0 1 -0.82197,0.316142 z m 8.99424,12.64569383 V -5.6159842 a 3.0349665,3.0349665 0 0 0 -0.42679,-1.8336256 1.5807118,1.5807118 0 0 0 -1.3278,-0.5690562 2.1339608,2.1339608 0 0 0 -1.26456,0.3793708 7.1290099,7.1290099 0 0 0 -0.80617,0.7429345 v 7.79290883 h -1.70717 V -9.220007 h 1.58072 v 1.1381124 a 3.1614234,3.1614234 0 0 1 0.26871,-0.3635636 2.5923673,2.5923673 0 0 1 0.55326,-0.4584065 3.1614234,3.1614234 0 0 1 0.80616,-0.3951779 2.9559309,2.9559309 0 0 1 1.04327,-0.1738782 3.6040228,3.6040228 0 0 1 1.23295,0.2054925 2.0865395,2.0865395 0 0 1 0.91681,0.6322846 2.9875452,2.9875452 0 0 1 0.60067,1.1539196 5.8802477,5.8802477 0 0 1 0.2055,1.738783 v 6.65479634 z m 5.97509,0 h -1.70717 V -9.220007 h 1.70717 z M 167.4585,-11.654303 a 1.1223053,1.1223053 0 0 1 -0.83777,-0.347756 1.2013409,1.2013409 0 0 1 -0.31615,-0.885199 1.1855338,1.1855338 0 0 1 0.31615,-0.869392 1.1064982,1.1064982 0 0 1 0.83777,-0.284528 1.1697267,1.1697267 0 0 1 0.83777,0.33195 1.343605,1.343605 0 0 1 0.31615,0.869391 1.2645694,1.2645694 0 0 1 -0.31615,0.885198 1.1064982,1.1064982 0 0 1 -0.83777,0.331951 z m 7.90356,4.4892213 a 3.9833936,3.9833936 0 0 0 -0.61648,-0.5216349 1.8652398,1.8652398 0 0 0 -1.15392,-0.3319494 1.5807118,1.5807118 0 0 0 -1.02746,0.3161423 1.0116555,1.0116555 0 0 0 -0.34776,0.7587416 1.3752192,1.3752192 0 0 0 0.31614,0.9484271 4.979242,4.979242 0 0 0 1.01166,0.7903559 l 0.63228,0.3793707 a 6.1173544,6.1173544 0 0 1 1.58072,1.3119908 2.9717381,2.9717381 0 0 1 -0.39518,3.85693663 3.3194946,3.3194946 0 0 1 -2.40269,0.82197007 4.2363075,4.2363075 0 0 1 -1.07488,-0.1264569 5.5641053,5.5641053 0 0 1 -0.80617,-0.30033524 3.2562662,3.2562662 0 0 1 -0.58486,-0.3635637 l -0.37936,-0.3635637 0.82197,-1.35941216 0.31614,0.3003353 a 2.1339608,2.1339608 0 0 0 0.42679,0.31614235 2.3552605,2.3552605 0 0 0 1.31199,0.37937083 1.6755544,1.6755544 0 0 0 1.15392,-0.34775662 1.0274626,1.0274626 0 0 0 0.41098,-0.82197006 2.0865395,2.0865395 0 0 0 -0.0948,-0.6164776 1.8020114,1.8020114 0 0 0 -0.28453,-0.4742135 2.2446107,2.2446107 0 0 0 -0.39518,-0.3635637 l -0.63228,-0.4267922 -0.63229,-0.3951779 a 6.1331615,6.1331615 0 0 1 -1.48587,-1.2961836 2.6081743,2.6081743 0 0 1 -0.53744,-1.7229758 2.3394533,2.3394533 0 0 1 0.85359,-1.8652398 2.6555957,2.6555957 0 0 1 0.85359,-0.6164777 3.1614234,3.1614234 0 0 1 1.13811,-0.2054924 4.3153431,4.3153431 0 0 1 1.01165,0.1106498 3.8411295,3.8411295 0 0 1 0.74293,0.3003352 3.7146726,3.7146726 0 0 1 0.50584,0.3635637 c 0.14226,0.1106498 0.23711,0.2212996 0.33194,0.3003352 z m 7.3503,-0.6638989 h -2.21299 v 5.6273337 a 2.8927025,2.8927025 0 0 0 0.26872,1.47006195 1.074884,1.074884 0 0 0 0.93262,0.37937083 1.7862042,1.7862042 0 0 0 0.6481,-0.0948432 l 0.41098,-0.18968542 0.2213,1.35941214 a 3.1614234,3.1614234 0 0 1 -0.50583,0.268721 2.7504384,2.7504384 0 0 1 -1.07489,0.1738783 2.4975245,2.4975245 0 0 1 -1.96007,-0.72712741 3.5724085,3.5724085 0 0 1 -0.6481,-2.41848899 V -7.828981 h -1.23295 v -1.1381121 l 1.23295,-0.2529139 0.18968,-2.829474 h 1.58072 v 2.829474 h 2.41849 z m 8.28294,2.023311 v 1.1381124 c 0,0.3161424 0,0.5848634 -0.0948,0.8377773 h -5.16893 a 4.5050285,4.5050285 0 0 0 0.77455,2.6239815 2.4026819,2.4026819 0 0 0 1.97589,0.85358428 2.829474,2.829474 0 0 0 0.80617,-0.11064982 3.3827232,3.3827232 0 0 0 0.61647,-0.25291385 1.9916968,1.9916968 0 0 0 0.44261,-0.30033521 l 0.26871,-0.2212997 0.63229,1.20134091 -0.31614,0.30033523 a 2.8927025,2.8927025 0 0 1 -0.56906,0.41098505 4.7421352,4.7421352 0 0 1 -0.88519,0.34775661 4.2205003,4.2205003 0 0 1 -1.24877,0.142264 4.3311501,4.3311501 0 0 1 -1.72298,-0.31614233 3.0507736,3.0507736 0 0 1 -1.29618,-0.98004127 4.4734142,4.4734142 0 0 1 -0.83778,-1.6913616 8.5358434,8.5358434 0 0 1 -0.30033,-2.4501031 7.6348377,7.6348377 0 0 1 0.31614,-2.3236463 4.3311501,4.3311501 0 0 1 0.82197,-1.5807117 3.4459516,3.4459516 0 0 1 1.23296,-0.9484271 3.7304797,3.7304797 0 0 1 1.48587,-0.3003352 2.8610883,2.8610883 0 0 1 2.27622,0.9168128 3.9359722,3.9359722 0 0 1 0.82197,2.7346313 z m -3.16142,-2.276225 a 1.7862042,1.7862042 0 0 0 -1.45426,0.7587417 4.2679217,4.2679217 0 0 0 -0.63228,2.1971893 h 3.69886 a 1.9442754,1.9442754 0 0 0 0,-0.3003351 V -5.853091 a 2.7504384,2.7504384 0 0 0 -0.4268,-1.5807117 1.4384477,1.4384477 0 0 0 -1.23295,-0.5848633 z m 9.92686,0.3635638 -0.26872,-0.1106498 a 2.3236463,2.3236463 0 0 0 -0.56906,0 1.5807118,1.5807118 0 0 0 -1.24876,0.4425993 2.4184889,2.4184889 0 0 0 -0.64809,0.9326199 v 7.42934512 h -1.70717 V -9.220007 h 1.58071 v 1.3752192 a 3.9992007,3.9992007 0 0 1 0.28453,-0.5848633 2.1339608,2.1339608 0 0 1 0.41099,-0.5058278 1.75459,1.75459 0 0 1 0.60067,-0.3477565 2.1655751,2.1655751 0 0 1 0.83777,-0.126457 1.8494328,1.8494328 0 0 1 0.58486,0 l 0.34777,0.094842 z m 3.39853,8.63068604 H 199.4521 V -9.220007 h 1.70717 z M 200.32149,-11.733339 a 1.0590769,1.0590769 0 0 1 -0.83777,-0.33195 1.2013409,1.2013409 0 0 1 -0.31615,-0.885198 1.1855338,1.1855338 0 0 1 0.31615,-0.869391 1.1064982,1.1064982 0 0 1 0.83777,-0.33195 1.0590769,1.0590769 0 0 1 0.82197,0.347757 1.1539195,1.1539195 0 0 1 0.31615,0.853584 1.2645694,1.2645694 0 0 1 -0.31615,0.901006 1.0432697,1.0432697 0 0 1 -0.99584,0.379371 z m 10.54335,12.64569424 h -1.58071 v -1.13811249 a 3.1614234,3.1614234 0 0 1 -0.26872,0.36356375 2.4975245,2.4975245 0 0 1 -0.53744,0.4584064 3.1614234,3.1614234 0 0 1 -0.79036,0.39517793 3.2562662,3.2562662 0 0 1 -1.02746,0.17387827 3.4617586,3.4617586 0 0 1 -1.21715,-0.2054925 1.9916968,1.9916968 0 0 1 -0.91681,-0.64809181 2.8927025,2.8927025 0 0 1 -0.58486,-1.1381124 7.1606242,7.1606242 0 0 1 -0.2055,-1.73878299 V -9.220007 h 1.72298 v 6.5283395 a 2.9717381,2.9717381 0 0 0 0.41098,1.80201135 1.4542548,1.4542548 0 0 0 1.26458,0.52163486 2.0707324,2.0707324 0 0 0 1.24875,-0.36356366 3.8569366,3.8569366 0 0 0 0.79037,-0.72712745 V -9.220007 h 1.72297 z m 7.90356,0 V -5.6159842 a 3.4143374,3.4143374 0 0 0 -0.34776,-1.7862043 1.2961836,1.2961836 0 0 0 -1.15392,-0.5532491 2.3868747,2.3868747 0 0 0 -0.75873,0.1106498 2.7820527,2.7820527 0 0 0 -0.58487,0.268721 3.0507736,3.0507736 0 0 0 -0.44259,0.3477567 l -0.31615,0.3319494 v 7.80871594 h -1.86524 V -9.220007 h 1.58071 v 1.1381124 a 2.5923673,2.5923673 0 0 1 0.31615,-0.410985 2.8610883,2.8610883 0 0 1 0.52162,-0.4584063 2.9401238,2.9401238 0 0 1 0.74294,-0.3477567 2.8452811,2.8452811 0 0 1 0.94843,-0.1580711 2.5449459,2.5449459 0 0 1 2.4501,1.3594121 3.7462868,3.7462868 0 0 1 0.39518,-0.4584065 3.5407942,3.5407942 0 0 1 1.35941,-0.7745487 3.6672512,3.6672512 0 0 1 0.91682,-0.1264569 c 2.05492,0 3.08238,1.2013409 3.08238,3.5882156 v 6.79706046 h -1.70717 V -5.6159842 a 2.829474,2.829474 0 0 0 -0.4426,-1.7862043 1.5807118,1.5807118 0 0 0 -1.31199,-0.5532491 1.9126612,1.9126612 0 0 0 -1.18553,0.3635637 4.2205003,4.2205003 0 0 0 -0.74294,0.663899 V 0.91235524 Z M 85.767316,13.447399 h -2.08654 v 8.725529 H 81.989415 V 13.447399 H 80.75646 v -1.138112 l 1.232955,-0.237107 v -2.023311 a 3.9992007,3.9992007 0 0 1 0.221299,-1.4226405 2.9559309,2.9559309 0 0 1 0.616479,-0.9642341 2.2604178,2.2604178 0 0 1 0.885198,-0.5532492 3.1614234,3.1614234 0 0 1 1.074883,-0.1580711 2.3552605,2.3552605 0 0 1 0.932621,0.142264 2.9559309,2.9559309 0 0 1 0.505828,0.2371067 L 85.862159,8.7368783 85.514402,8.5630001 a 1.7229758,1.7229758 0 0 0 -0.569056,-0.094843 1.1697267,1.1697267 0 0 0 -0.93262,0.3793708 2.2762249,2.2762249 0 0 0 -0.316142,1.3910261 v 1.817819 h 2.276225 z m 8.77295,8.725529 h -1.580717 v -1.138113 a 1.2803765,1.2803765 0 0 1 -0.268715,0.379371 2.4975245,2.4975245 0 0 1 -0.537441,0.458407 3.366916,3.366916 0 0 1 -0.790357,0.395177 3.2562662,3.2562662 0 0 1 -1.027463,0.173879 3.5882156,3.5882156 0 0 1 -1.217148,-0.205492 2.2762249,2.2762249 0 0 1 -0.916813,-0.632286 3.1614234,3.1614234 0 0 1 -0.584863,-1.153918 6.4493039,6.4493039 0 0 1 -0.189685,-1.738784 v -6.654796 h 1.707168 v 6.512532 a 3.0191594,3.0191594 0 0 0 0.410985,1.802011 1.485869,1.485869 0 0 0 1.280377,0.537443 2.023311,2.023311 0 0 0 1.232956,-0.363564 5.0740846,5.0740846 0 0 0 0.806167,-0.727128 v -7.777101 h 1.707167 z M 90.335573,9.1320562 a 1.0906911,1.0906911 0 0 1 -0.284528,0.7903559 1.0274626,1.0274626 0 0 1 -1.438448,0 1.1855338,1.1855338 0 0 1 0,-1.5807118 1.0274626,1.0274626 0 0 1 1.438448,0 1.074884,1.074884 0 0 1 0.284528,0.7903559 z m 3.256271,0 a 1.0432697,1.0432697 0 0 1 -0.300343,0.7903559 1.0274626,1.0274626 0 0 1 -1.438441,0 1.1855338,1.1855338 0 0 1 0,-1.5807118 1.0274626,1.0274626 0 0 1 1.738784,0.7745489 z m 8.014206,4.4101858 a 0.91681281,0.91681281 0 0 0 -0.26872,-0.09484 2.2129964,2.2129964 0 0 0 -1.833633,0.363564 2.6081743,2.6081743 0 0 0 -0.648088,0.948427 v 7.413538 H 97.164246 V 12.056373 h 1.580717 v 1.375219 a 2.7820527,2.7820527 0 0 1 0.268715,-0.584863 1.8652398,1.8652398 0 0 1 0.426794,-0.505828 1.8020114,1.8020114 0 0 1 0.600668,-0.363563 2.9875452,2.9875452 0 0 1 0.83778,-0.126458 2.3236463,2.3236463 0 0 1 0.56905,0 l 0.36357,0.11065 z M 116.48054,7.6303801 111.7384,22.172928 h -1.45424 L 105.68429,7.6303801 h 1.99169 l 2.76625,9.6581489 c 0.15807,0.537442 0.28453,1.059076 0.41098,1.580712 a 6.3228469,6.3228469 0 0 1 0.20549,1.217148 6.3228469,6.3228469 0 0 1 0.2213,-1.217148 l 0.41099,-1.580712 2.8927,-9.6897632 z m 7.03417,7.9035589 v 1.960082 h -5.31119 a 4.5524498,4.5524498 0 0 0 0.77455,2.639789 2.3710676,2.3710676 0 0 0 1.97588,0.837777 2.6397885,2.6397885 0 0 0 0.79037,-0.09484 3.0191594,3.0191594 0 0 0 1.07488,-0.553249 1.9442754,1.9442754 0 0 0 0.25291,-0.237107 l 0.63229,1.20134 a 2.9243167,2.9243167 0 0 1 -0.31614,0.316142 2.8136669,2.8136669 0 0 1 -0.56906,0.395179 4.3469573,4.3469573 0 0 1 -0.8852,0.363564 5.3586128,5.3586128 0 0 1 -1.23296,0.142263 4.5682569,4.5682569 0 0 1 -1.72297,-0.316142 3.3353018,3.3353018 0 0 1 -1.31199,-0.980041 5.1373132,5.1373132 0 0 1 -0.79036,-1.754591 9.1839351,9.1839351 0 0 1 -0.28452,-2.450103 7.7929089,7.7929089 0 0 1 0.28452,-2.339453 4.4576071,4.4576071 0 0 1 0.82197,-1.580711 3.4459516,3.4459516 0 0 1 1.23296,-0.948428 3.7462868,3.7462868 0 0 1 1.58071,-0.300335 2.8927025,2.8927025 0 0 1 2.27622,0.916813 4.0782363,4.0782363 0 0 1 0.82197,2.750438 z m -3.16142,-2.276226 a 1.6755544,1.6755544 0 0 0 -1.45426,0.758743 4.0782363,4.0782363 0 0 0 -0.63228,2.197189 h 3.68306 a 2.149768,2.149768 0 0 0 0,-0.316143 3.5724085,3.5724085 0 0 0 0,-0.426792 2.6714029,2.6714029 0 0 0 -0.4268,-1.580711 1.4068334,1.4068334 0 0 0 -1.23295,-0.584864 z m 9.92687,0.347757 a 1.0116555,1.0116555 0 0 0 -0.28453,-0.09484 1.5807118,1.5807118 0 0 0 -0.56906,0 1.7229758,1.7229758 0 0 0 -1.24876,0.426791 2.6081743,2.6081743 0 0 0 -0.64809,0.948428 v 7.413538 h -1.75459 V 12.182829 h 1.58071 v 1.375219 a 2.7820527,2.7820527 0 0 1 0.26872,-0.584863 1.8652398,1.8652398 0 0 1 0.4268,-0.505828 1.8020114,1.8020114 0 0 1 0.60066,-0.363563 2.8768953,2.8768953 0 0 1 0.82198,-0.126457 2.3710676,2.3710676 0 0 1 0.58486,0 l 0.34775,0.110649 z m 5.50088,3.161424 3.47756,5.48507 h -2.03911 l -2.84529,-4.742135 h -0.69551 v 4.742135 h -1.70718 V 7.2668164 l 1.70718,-0.1896854 v 8.915214 h 0.58487 l 2.73462,-3.935972 h 2.02332 z m 11.06498,-1.217148 v 1.960083 h -5.31119 a 4.5524498,4.5524498 0 0 0 0.77455,2.639788 2.4026819,2.4026819 0 0 0 1.96008,0.837777 2.6872099,2.6872099 0 0 0 0.80617,-0.110649 2.4026819,2.4026819 0 0 0 0.63228,-0.252914 3.4775658,3.4775658 0 0 0 0.4426,-0.284528 1.9442754,1.9442754 0 0 0 0.25291,-0.237107 l 0.63228,1.201341 a 3.1614234,3.1614234 0 0 1 -0.31614,0.300334 2.8927025,2.8927025 0 0 1 -0.56905,0.410986 3.5566014,3.5566014 0 0 1 -0.82197,0.300335 4.6314854,4.6314854 0 0 1 -1.23296,0.158072 4.9002064,4.9002064 0 0 1 -1.72298,-0.316143 3.493373,3.493373 0 0 1 -1.31199,-0.980041 4.7421352,4.7421352 0 0 1 -0.82197,-1.691362 8.6464932,8.6464932 0 0 1 -0.30033,-2.46591 7.7612947,7.7612947 0 0 1 0.30033,-2.323646 4.7421352,4.7421352 0 0 1 0.83778,-1.580712 3.3985302,3.3985302 0 0 1 1.21715,-0.948427 3.7462868,3.7462868 0 0 1 1.50167,-0.300335 2.8927025,2.8927025 0 0 1 2.27623,0.916813 3.9517793,3.9517793 0 0 1 0.82197,2.750438 z m -3.16142,-2.276225 a 1.6913616,1.6913616 0 0 0 -1.45426,0.758742 4.2205003,4.2205003 0 0 0 -0.63228,2.197189 h 3.69886 v -0.742934 a 2.6714029,2.6714029 0 0 0 -0.4268,-1.580712 1.3910263,1.3910263 0 0 0 -1.24875,-0.711321 z m 11.06498,8.978443 v -6.591568 a 3.0033523,3.0033523 0 0 0 -0.4426,-1.849433 1.5807118,1.5807118 0 0 0 -1.31199,-0.55325 1.9916968,1.9916968 0 0 0 -1.26457,0.379372 4.5050285,4.5050285 0 0 0 -0.80617,0.742935 v 7.792908 h -1.70716 V 7.2668164 l 1.70716,-0.1896854 v 6.006705 l 0.26873,-0.33195 a 2.6714029,2.6714029 0 0 1 0.50582,-0.426792 3.8727437,3.8727437 0 0 1 0.77455,-0.363564 3.366916,3.366916 0 0 1 1.05908,-0.158071 2.6714029,2.6714029 0 0 1 2.10234,0.869392 4.2046933,4.2046933 0 0 1 0.79036,2.861088 v 6.638989 z m 8.70971,-8.614879 a 0.88519857,0.88519857 0 0 0 -0.28452,-0.11065 2.1181537,2.1181537 0 0 0 -0.55325,0 1.738783,1.738783 0 0 0 -1.26457,0.426792 2.6081743,2.6081743 0 0 0 -0.64809,0.948427 v 7.413538 H 159.0017 V 12.198637 h 1.5807 v 1.37522 a 2.7820527,2.7820527 0 0 1 0.26873,-0.584864 1.8652398,1.8652398 0 0 1 0.42678,-0.505828 1.8020114,1.8020114 0 0 1 0.60068,-0.363563 2.9717381,2.9717381 0 0 1 0.82197,-0.126457 2.3710676,2.3710676 0 0 1 0.58486,0 l 0.36356,0.11065 z m 12.75635,8.614879 h -1.58071 v -1.138113 a 2.3078391,2.3078391 0 0 1 -0.26872,0.379371 2.9559309,2.9559309 0 0 1 -0.53744,0.458406 4.1098505,4.1098505 0 0 1 -0.79036,0.395179 3.2878804,3.2878804 0 0 1 -1.04327,0.173877 3.4301444,3.4301444 0 0 1 -1.37522,-0.205492 2.0865395,2.0865395 0 0 1 -0.91681,-0.632284 3.0665808,3.0665808 0 0 1 -0.58486,-1.15392 6.465111,6.465111 0 0 1 -0.20549,-1.738783 v -6.733832 h 1.70716 v 6.512532 a 3.0191594,3.0191594 0 0 0 0.41098,1.802011 1.5807118,1.5807118 0 0 0 1.28038,0.537443 2.0707324,2.0707324 0 0 0 1.24877,-0.363564 4.9002064,4.9002064 0 0 0 0.79035,-0.727128 v -7.777101 h 1.70717 z m 8.14067,0 v -6.591568 a 3.1614234,3.1614234 0 0 0 -0.4268,-1.849433 1.5807118,1.5807118 0 0 0 -1.31199,-0.55325 1.9916968,1.9916968 0 0 0 -1.26457,0.379372 3.9833936,3.9833936 0 0 0 -0.80615,0.742935 v 7.792908 h -1.70718 V 12.056373 h 1.58071 v 1.138112 a 2.0549252,2.0549252 0 0 1 0.28453,-0.363564 2.1813822,2.1813822 0 0 1 0.53745,-0.474212 3.7620939,3.7620939 0 0 1 0.80616,-0.379371 2.9875452,2.9875452 0 0 1 1.05907,-0.173879 3.5882156,3.5882156 0 0 1 1.21715,0.205493 2.2288035,2.2288035 0 0 1 0.93263,0.632284 3.1614234,3.1614234 0 0 1 0.58486,1.15392 5.8802477,5.8802477 0 0 1 0.20549,1.738783 v 6.638989 z m 3.80952,-4.900207 a 7.0973957,7.0973957 0 0 1 0.39517,-2.57656 4.5682569,4.5682569 0 0 1 1.02746,-1.675554 3.5882156,3.5882156 0 0 1 1.43845,-0.885199 5.0582776,5.0582776 0 0 1 1.58071,-0.268721 3.6672512,3.6672512 0 0 1 0.83777,0 2.6239815,2.6239815 0 0 1 0.60068,0.173879 V 7.2668164 l 1.70717,-0.1896854 v 15.095797 h -1.58072 v -1.074884 a 2.7820527,2.7820527 0 0 1 -0.22129,0.363564 3.1614234,3.1614234 0 0 1 -0.47422,0.442599 3.1614234,3.1614234 0 0 1 -0.72712,0.379371 3.2720733,3.2720733 0 0 1 -1.04327,0.158071 3.3827232,3.3827232 0 0 1 -1.35941,-0.284528 3.1614234,3.1614234 0 0 1 -1.12232,-0.901006 4.7421352,4.7421352 0 0 1 -0.77454,-1.580712 8.0458227,8.0458227 0 0 1 -0.26872,-2.371067 z m 3.99919,3.635637 a 2.0865395,2.0865395 0 0 0 1.26457,-0.363563 2.5923673,2.5923673 0 0 0 0.39518,-0.33195 1.3277979,1.3277979 0 0 0 0.23711,-0.284529 v -6.322846 a 2.2762249,2.2762249 0 0 0 -0.52164,-0.252914 2.1971893,2.1971893 0 0 0 -0.77455,-0.11065 2.9243167,2.9243167 0 0 0 -1.10649,0.205493 2.0707324,2.0707324 0 0 0 -0.90101,0.663899 3.5724085,3.5724085 0 0 0 -0.60067,1.201341 6.3228469,6.3228469 0 0 0 -0.2213,1.802012 7.3977309,7.3977309 0 0 0 0.17388,1.770396 3.3511088,3.3511088 0 0 0 0.50582,1.138113 1.7862042,1.7862042 0 0 0 0.55326,0.632284 1.9600826,1.9600826 0 0 0 0.83777,0.189685 z M 81.025181,38.533295 a 7.2080455,7.2080455 0 0 1 0.410985,-2.57656 4.6472925,4.6472925 0 0 1 1.027463,-1.659748 3.6988654,3.6988654 0 0 1 1.438447,-0.901005 5.0266634,5.0266634 0 0 1 1.580712,-0.252914 3.8885509,3.8885509 0 0 1 0.853585,0 3.5724085,3.5724085 0 0 1 0.584862,0.173877 v -4.773748 l 1.707169,-0.189686 v 15.095797 h -1.580712 v -1.074884 c 0,0.126457 -0.142263,0.237107 -0.237107,0.363564 a 3.1614234,3.1614234 0 0 1 -0.474212,0.442599 2.9875452,2.9875452 0 0 1 -0.742935,0.37937 3.1614234,3.1614234 0 0 1 -1.027463,0.142265 3.3353018,3.3353018 0 0 1 -1.359412,-0.284528 2.8927025,2.8927025 0 0 1 -1.138113,-0.901006 4.6472925,4.6472925 0 0 1 -0.758741,-1.580711 8.6781074,8.6781074 0 0 1 -0.284528,-2.402682 z m 4.015008,3.651444 a 2.1655751,2.1655751 0 0 0 0.71132,-0.110651 2.1971893,2.1971893 0 0 0 0.553249,-0.252913 2.5923673,2.5923673 0 0 0 0.395178,-0.331949 l 0.237107,-0.300336 v -6.228004 a 2.7978597,2.7978597 0 0 0 -0.537442,-0.252914 2.0391181,2.0391181 0 0 0 -0.758742,-0.09484 2.9085096,2.9085096 0 0 0 -1.106498,0.189685 2.2446107,2.2446107 0 0 0 -0.901005,0.663899 3.3036876,3.3036876 0 0 0 -0.600671,1.20134 6.4334968,6.4334968 0 0 0 -0.2213,1.817819 7.3977309,7.3977309 0 0 0 0.173878,1.770398 3.4459516,3.4459516 0 0 0 0.490021,1.138111 1.9758896,1.9758896 0 0 0 0.727128,0.616478 1.9126612,1.9126612 0 0 0 0.837777,0.189685 z m 7.903557,1.264569 H 91.268193 V 33.380175 h 1.707171 z M 92.090168,30.88265 a 1.0590769,1.0590769 0 0 1 -0.837782,-0.347757 1.2013409,1.2013409 0 0 1 -0.316142,-0.885198 1.1539195,1.1539195 0 0 1 0.316142,-0.853585 1.1697267,1.1697267 0 0 1 1.580713,0 1.1539195,1.1539195 0 0 1 0.316137,0.853585 1.2013409,1.2013409 0 0 1 -0.316137,0.885198 1.0590769,1.0590769 0 0 1 -0.806167,0.347757 z m 10.717212,3.7779 h -1.26456 a 3.4301444,3.4301444 0 0 1 0.52163,1.881048 3.777901,3.777901 0 0 1 -0.26871,1.454255 3.1614234,3.1614234 0 0 1 -0.72713,1.090691 3.50918,3.50918 0 0 1 -1.122315,0.663898 4.1414647,4.1414647 0 0 1 -1.391019,0.237107 h -0.537441 a 1.7071686,1.7071686 0 0 0 -0.537441,0.33195 0.75874163,0.75874163 0 0 0 -0.268726,0.616478 0.60067045,0.60067045 0 0 0 0.237108,0.505827 1.2645694,1.2645694 0 0 0 0.790353,0.205492 h 1.248765 a 6.3228469,6.3228469 0 0 1 1.327796,0.142265 3.1614234,3.1614234 0 0 1 1.05908,0.474213 2.4342961,2.4342961 0 0 1 0.71132,0.837777 2.9717381,2.9717381 0 0 1 0.25291,1.232955 3.2720733,3.2720733 0 0 1 -0.36356,1.485869 3.493373,3.493373 0 0 1 -0.98005,1.169727 4.9634348,4.9634348 0 0 1 -1.580702,0.758742 6.7812534,6.7812534 0 0 1 -2.023314,0.268721 3.6988654,3.6988654 0 0 1 -2.465912,-0.71132 2.4342961,2.4342961 0 0 1 -0.679706,-2.118154 2.1655751,2.1655751 0 0 1 0.2055,-0.995848 2.9401238,2.9401238 0 0 1 0.474206,-0.711321 2.7346313,2.7346313 0 0 1 0.553255,-0.490021 l 0.347755,-0.284527 a 1.5807118,1.5807118 0 0 1 -0.648088,-1.422641 1.3594121,1.3594121 0 0 1 0.158068,-0.695513 2.1181537,2.1181537 0 0 1 0.347755,-0.490021 l 0.395177,-0.300335 0.316147,-0.158071 a 3.0349665,3.0349665 0 0 1 -1.264569,-1.138113 4.3785715,4.3785715 0 0 1 -0.142264,-3.540794 3.0033523,3.0033523 0 0 1 1.817813,-1.691361 4.3469573,4.3469573 0 0 1 1.343608,-0.2213 3.8885509,3.8885509 0 0 1 1.343598,0.252913 h 3.161433 z m -4.742123,8.472616 a 4.4417999,4.4417999 0 0 1 -0.790364,0 2.9717381,2.9717381 0 0 0 -0.363558,0.252914 1.8178185,1.8178185 0 0 0 -0.331951,0.363564 2.3394533,2.3394533 0 0 0 -0.237108,0.49002 2.4026819,2.4026819 0 0 0 -0.09484,0.663898 c 0,1.074885 0.600677,1.580712 1.786207,1.580712 a 3.5882156,3.5882156 0 0 0 2.276217,-0.60067 1.75459,1.75459 0 0 0 0.75875,-1.438448 1.1697267,1.1697267 0 0 0 -0.45841,-1.043269 2.292032,2.292032 0 0 0 -1.248763,-0.300336 z m 2.323643,-6.591568 a 1.9600826,1.9600826 0 0 0 -0.50583,-1.580712 1.75459,1.75459 0 0 0 -1.217147,-0.474213 1.881047,1.881047 0 0 0 -1.264569,0.474213 2.5291387,2.5291387 0 0 0 0,3.161424 1.896854,1.896854 0 0 0 2.481716,0 1.9758896,1.9758896 0 0 0 0.52164,-1.580712 z m 6.10154,6.986746 h -1.70716 V 33.380175 h 1.70716 z m -0.83777,-12.566659 a 1.1064982,1.1064982 0 0 1 -0.85359,-0.347757 1.2645694,1.2645694 0 0 1 -0.31614,-0.885198 1.2961836,1.2961836 0 0 1 0.31614,-0.853584 1.1064982,1.1064982 0 0 1 0.85359,-0.347757 1.1064982,1.1064982 0 0 1 0.82197,0.347757 1.217148,1.217148 0 0 1 0.31615,0.853584 1.2013409,1.2013409 0 0 1 -0.31615,0.885198 1.0906911,1.0906911 0 0 1 -0.82197,0.347757 z m 7.7771,3.84113 h -2.21299 v 5.532491 a 2.6714029,2.6714029 0 0 0 0.28453,1.470062 1.0590769,1.0590769 0 0 0 0.91681,0.395177 1.9758896,1.9758896 0 0 0 1.05907,-0.300335 l 0.23711,1.37522 a 3.0191594,3.0191594 0 0 1 -0.50583,0.252914 2.8136669,2.8136669 0 0 1 -1.07488,0.189685 2.5291387,2.5291387 0 0 1 -1.96009,-0.727128 3.5724085,3.5724085 0 0 1 -0.66389,-2.418488 v -5.848634 h -1.21716 v -1.138112 l 1.21716,-0.252914 0.18968,-2.829474 H 111.28 v 2.876896 h 2.4343 z m 1.35941,6.148968 a 2.829474,2.829474 0 0 1 0.33195,-1.470061 2.7820527,2.7820527 0 0 1 0.90101,-0.964235 3.777901,3.777901 0 0 1 1.3436,-0.521634 8.1406654,8.1406654 0 0 1 1.58071,-0.173879 h 0.53745 v -0.948427 a 2.5291387,2.5291387 0 0 0 -0.41098,-1.912661 1.5807118,1.5807118 0 0 0 -1.26457,-0.490021 2.2288035,2.2288035 0 0 0 -1.26457,0.33195 7.3819238,7.3819238 0 0 0 -0.80617,0.569056 l -0.71132,-1.138113 0.42679,-0.37937 a 5.4534555,5.4534555 0 0 1 0.64809,-0.395178 4.4101857,4.4101857 0 0 1 0.86939,-0.316142 4.2837287,4.2837287 0 0 1 1.0907,-0.126457 3.0507736,3.0507736 0 0 1 2.37107,0.869391 4.0624291,4.0624291 0 0 1 0.79035,2.782053 v 6.733832 h -1.58072 v -1.122305 a 3.7937082,3.7937082 0 0 1 -0.25291,0.426792 2.2762249,2.2762249 0 0 1 -0.42679,0.442599 3.3827232,3.3827232 0 0 1 -0.60067,0.363564 2.6081743,2.6081743 0 0 1 -0.85359,0.142263 2.6872099,2.6872099 0 0 1 -1.05906,-0.205492 2.6555957,2.6555957 0 0 1 -1.43846,-1.48587 3.1614234,3.1614234 0 0 1 -0.20549,-1.153918 z m 3.05077,1.375219 a 1.8652398,1.8652398 0 0 0 1.1065,-0.363564 1.5807118,1.5807118 0 0 0 0.34776,-0.316142 c 0,-0.126457 0.17388,-0.221299 0.23711,-0.316142 v -2.307838 h -0.55325 a 3.9359722,3.9359722 0 0 0 -1.84943,0.426791 1.3119907,1.3119907 0 0 0 -0.63228,1.232956 1.7229758,1.7229758 0 0 0 0.34775,1.169726 1.3119907,1.3119907 0 0 0 0.99584,0.379371 z m 7.63485,-1.153918 a 1.738783,1.738783 0 0 0 0.17387,0.885198 0.79035587,0.79035587 0 0 0 0.63229,0.252913 1.5807118,1.5807118 0 0 0 0.37937,0 h 0.25291 l 0.14226,1.26457 -0.4584,0.173879 a 3.5566014,3.5566014 0 0 1 -0.91681,0.110649 1.9284683,1.9284683 0 0 1 -1.39103,-0.537442 2.6555957,2.6555957 0 0 1 -0.52164,-2.039118 V 28.638039 l 1.70718,-0.189685 z m 9.62653,-4.346958 v 1.960083 h -5.29538 a 4.5998711,4.5998711 0 0 0 0.77455,2.497524 2.4184889,2.4184889 0 0 0 1.97589,0.837777 2.6555957,2.6555957 0 0 0 0.79035,-0.11065 2.4026819,2.4026819 0 0 0 0.63229,-0.252914 3.4775658,3.4775658 0 0 0 0.44259,-0.284528 c 0.11065,-0.110649 0.20549,-0.173878 0.25292,-0.237106 l 0.63228,1.20134 a 3.1614234,3.1614234 0 0 1 -0.31614,0.300336 2.8927025,2.8927025 0 0 1 -0.56906,0.410985 3.9675865,3.9675865 0 0 1 -0.88519,0.347756 4.6314854,4.6314854 0 0 1 -1.23296,0.158071 4.9634348,4.9634348 0 0 1 -1.72297,-0.316142 3.3827232,3.3827232 0 0 1 -1.31199,-0.995848 4.7421352,4.7421352 0 0 1 -0.82198,-1.675555 8.6464932,8.6464932 0 0 1 -0.30033,-2.46591 7.6980661,7.6980661 0 0 1 0.30033,-2.323646 4.7421352,4.7421352 0 0 1 0.83778,-1.580712 3.3985302,3.3985302 0 0 1 1.21715,-0.948427 3.7462868,3.7462868 0 0 1 1.50167,-0.300335 2.8768953,2.8768953 0 0 1 2.27623,0.916813 3.9992007,3.9992007 0 0 1 0.82197,2.782052 z m -3.16142,-2.276225 a 1.6755544,1.6755544 0 0 0 -1.45426,0.758742 4.0624291,4.0624291 0 0 0 -0.63228,2.181382 h 3.69886 a 1.75459,1.75459 0 0 0 0,-0.300335 v -0.426792 a 2.7188241,2.7188241 0 0 0 -0.41098,-1.580712 1.4226406,1.4226406 0 0 0 -1.23296,-0.569056 z m 11.06498,-4.315343 h -1.58072 v -1.264569 h 4.91602 v 1.248762 h -1.58071 v 11.965988 h 1.58071 v 1.327798 h -4.99505 v -1.327798 h 1.58071 z m 10.97014,13.293786 v -6.591569 a 3.1614234,3.1614234 0 0 0 -0.4268,-1.849432 1.5807118,1.5807118 0 0 0 -1.32779,-0.55325 2.0549252,2.0549252 0 0 0 -1.26457,0.379372 4.9002064,4.9002064 0 0 0 -0.79036,0.727127 v 7.808716 h -1.70717 V 33.380175 h 1.58072 v 1.138112 a 1.5807118,1.5807118 0 0 1 0.26871,-0.379371 2.5923673,2.5923673 0 0 1 0.55326,-0.458407 4.1098505,4.1098505 0 0 1 0.79035,-0.395177 3.4617586,3.4617586 0 0 1 1.05908,-0.173879 3.6040228,3.6040228 0 0 1 1.23295,0.205492 2.1813822,2.1813822 0 0 1 0.91681,0.632286 3.1614234,3.1614234 0 0 1 0.60068,1.153919 6.465111,6.465111 0 0 1 0.20549,1.738783 v 6.638989 z m 8.52004,-8.725529 h -2.05493 v 8.725529 h -1.70717 v -8.804565 h -1.21715 v -1.138112 l 1.21715,-0.237107 v -2.023311 a 3.635637,3.635637 0 0 1 0.23711,-1.42264 2.5923673,2.5923673 0 0 1 0.61648,-0.964235 2.0549252,2.0549252 0 0 1 0.88519,-0.553249 3.5566014,3.5566014 0 0 1 1.07489,-0.173878 2.5449459,2.5449459 0 0 1 0.91681,0.158071 2.8927025,2.8927025 0 0 1 0.50582,0.221299 l -0.34775,1.422642 -0.34776,-0.173879 a 1.2013409,1.2013409 0 0 0 -0.56906,-0.09484 1.0906911,1.0906911 0 0 0 -0.93261,0.379371 2.1655751,2.1655751 0 0 0 -0.31614,1.391026 v 1.865241 h 2.26041 z m 6.13316,0.11065 a 0.80616298,0.80616298 0 0 0 -0.26873,-0.11065 2.3236463,2.3236463 0 0 0 -0.56905,0 1.7071686,1.7071686 0 0 0 -1.24876,0.426792 2.6081743,2.6081743 0 0 0 -0.64809,0.948427 v 7.413538 h -1.70718 V 33.380175 h 1.58072 v 1.359412 a 3.8253224,3.8253224 0 0 1 0.28453,-0.569057 2.1339608,2.1339608 0 0 1 0.41098,-0.505828 1.8020114,1.8020114 0 0 1 0.60067,-0.363564 2.5133317,2.5133317 0 0 1 0.83778,-0.126456 2.4501032,2.4501032 0 0 1 0.58486,0 l 0.34776,0.11065 z m 0.99584,6.054125 a 2.8610883,2.8610883 0 0 1 0.34776,-1.485868 2.7662455,2.7662455 0 0 1 0.901,-0.964235 4.0940434,4.0940434 0 0 1 1.34361,-0.521634 8.0142085,8.0142085 0 0 1 1.58071,-0.158072 h 0.53745 v -0.964234 a 2.6239815,2.6239815 0 0 0 -0.45841,-1.770397 1.5807118,1.5807118 0 0 0 -1.28038,-0.49002 2.2288035,2.2288035 0 0 0 -1.26456,0.331949 q -0.39518,0.252914 -0.80617,0.569056 l -0.71133,-1.138112 0.4268,-0.379371 a 5.4534555,5.4534555 0 0 1 0.6481,-0.395178 4.4101857,4.4101857 0 0 1 0.86938,-0.316142 4.2837287,4.2837287 0 0 1 1.0907,-0.126457 3.0507736,3.0507736 0 0 1 2.37107,0.869391 3.904358,3.904358 0 0 1 0.79035,2.782052 v 6.591569 h -1.58071 v -1.122305 a 3.7937082,3.7937082 0 0 1 -0.25292,0.426792 1.5807118,1.5807118 0 0 1 -0.42678,0.442599 3.3827232,3.3827232 0 0 1 -0.60068,0.363564 2.6081743,2.6081743 0 0 1 -0.85358,0.142263 2.6872099,2.6872099 0 0 1 -1.05908,-0.205492 2.7662455,2.7662455 0 0 1 -0.86939,-0.60067 2.4975245,2.4975245 0 0 1 -0.56906,-0.8852 3.1614234,3.1614234 0 0 1 -0.20549,-1.153918 z m 3.06659,1.359412 a 1.75459,1.75459 0 0 0 0.63228,-0.09484 2.7346313,2.7346313 0 0 0 0.47421,-0.252914 1.5807118,1.5807118 0 0 0 0.33195,-0.33195 l 0.23711,-0.300335 v -2.323645 h -0.58487 a 3.9992007,3.9992007 0 0 0 -1.86523,0.426791 1.3119907,1.3119907 0 0 0 -0.61648,1.232956 1.7229758,1.7229758 0 0 0 0.34775,1.169726 1.2803765,1.2803765 0 0 0 0.99586,0.379371 z m 10.32204,-6.876096 a 4.8843992,4.8843992 0 0 0 -0.61647,-0.521634 2.0075039,2.0075039 0 0 0 -1.16973,-0.316142 1.4542548,1.4542548 0 0 0 -1.02747,0.316142 0.98004127,0.98004127 0 0 0 -0.34775,0.758741 1.3119907,1.3119907 0 0 0 0.31614,0.93262 4.0624291,4.0624291 0 0 0 1.01166,0.790356 l 0.63228,0.379371 a 6.1805829,6.1805829 0 0 1 1.58071,1.327798 2.9559309,2.9559309 0 0 1 -0.23711,3.84113 3.240459,3.240459 0 0 1 -2.38687,0.821969 3.50918,3.50918 0 0 1 -1.07488,-0.126457 5.0582776,5.0582776 0 0 1 -0.82197,-0.284528 3.4301444,3.4301444 0 0 1 -0.94842,-0.742934 l 0.82196,-1.359412 a 2.6714029,2.6714029 0 0 0 0.30034,0.300335 2.1971893,2.1971893 0 0 0 0.42678,0.331949 2.9875452,2.9875452 0 0 0 0.56906,0.252915 2.3552605,2.3552605 0 0 0 0.74293,0.110649 1.738783,1.738783 0 0 0 1.15393,-0.331949 1.074884,1.074884 0 0 0 0.41099,-0.82197 2.1181537,2.1181537 0 0 0 -0.0948,-0.632285 1.4542548,1.4542548 0 0 0 -0.28453,-0.474213 2.8610883,2.8610883 0 0 0 -0.47421,-0.395179 l -0.63229,-0.426792 -0.63228,-0.395177 a 6.3228469,6.3228469 0 0 1 -1.48587,-1.280377 2.7504384,2.7504384 0 0 1 -0.52163,-1.738783 2.1813822,2.1813822 0 0 1 0.22129,-1.04327 2.2604178,2.2604178 0 0 1 0.61648,-0.82197 3.3036876,3.3036876 0 0 1 0.93262,-0.553249 3.1614234,3.1614234 0 0 1 1.15392,-0.189685 3.6198298,3.6198298 0 0 1 1.01166,0.11065 2.4342961,2.4342961 0 0 1 0.72713,0.300335 2.8610883,2.8610883 0 0 1 0.50582,0.347756 3.3511088,3.3511088 0 0 1 0.33195,0.316142 z m 7.33451,-0.648091 h -2.33946 v 5.532491 a 2.8610883,2.8610883 0 0 0 0.26872,1.470062 1.0906911,1.0906911 0 0 0 0.93262,0.395177 1.8020114,1.8020114 0 0 0 0.64809,-0.110649 1.9442754,1.9442754 0 0 0 0.41099,-0.189686 l 0.2213,1.37522 a 3.0191594,3.0191594 0 0 1 -0.50583,0.252914 2.7978597,2.7978597 0 0 1 -1.07488,0.173878 2.4659103,2.4659103 0 0 1 -1.96008,-0.727127 3.4301444,3.4301444 0 0 1 -0.6481,-2.418489 v -5.848634 h -1.23295 V 33.56986 l 1.35941,-0.189685 0.18969,-2.829475 h 1.5807 v 2.829475 h 2.41849 z m 6.32284,0.09484 a 1.343605,1.343605 0 0 0 -0.26872,-0.09484 1.75459,1.75459 0 0 0 -0.56905,0 1.7071686,1.7071686 0 0 0 -1.24877,0.426792 2.6081743,2.6081743 0 0 0 -0.64808,0.948427 v 7.413538 h -1.70718 V 33.380175 h 1.58071 v 1.359412 a 3.8253224,3.8253224 0 0 1 0.28453,-0.569057 2.1339608,2.1339608 0 0 1 0.41098,-0.505828 1.8020114,1.8020114 0 0 1 0.60068,-0.363564 2.5133317,2.5133317 0 0 1 0.83778,-0.126456 2.4501032,2.4501032 0 0 1 0.58486,0 l 0.34775,0.11065 z m 8.72553,8.551651 h -1.58071 v -1.138113 a 2.1655751,2.1655751 0 0 1 -0.26872,0.363564 2.5133317,2.5133317 0 0 1 -0.53744,0.474214 4.6156783,4.6156783 0 0 1 -0.79036,0.395178 3.240459,3.240459 0 0 1 -1.02746,0.158071 3.4459516,3.4459516 0 0 1 -1.21715,-0.189685 2.2604178,2.2604178 0 0 1 -0.90101,-0.648092 2.8610883,2.8610883 0 0 1 -0.58486,-1.15392 7.1606242,7.1606242 0 0 1 -0.20549,-1.738783 v -6.591567 h 1.70716 v 6.512532 a 2.9559309,2.9559309 0 0 0 0.4268,1.802011 1.4700619,1.4700619 0 0 0 1.26457,0.537442 2.0865395,2.0865395 0 0 0 1.24876,-0.37937 4.2679217,4.2679217 0 0 0 0.79035,-0.727128 v -7.745487 h 1.67556 z m 6.43349,-5.48507 3.49338,5.48507 h -2.02331 l -2.84528,-4.742136 h -0.69551 v 4.742136 h -1.70718 V 28.543197 l 1.70718,-0.189686 v 8.915214 h 0.71131 l 2.73464,-3.88855 h 2.0233 z m 9.32621,-3.161423 h -2.213 v 5.532491 a 2.6397885,2.6397885 0 0 0 0.28453,1.470062 1.0590769,1.0590769 0 0 0 0.91681,0.395177 1.9442754,1.9442754 0 0 0 0.6639,-0.110649 2.2446107,2.2446107 0 0 0 0.39517,-0.189686 l 0.23711,1.37522 a 3.0191594,3.0191594 0 0 1 -0.50582,0.252914 2.8136669,2.8136669 0 0 1 -1.07489,0.189685 2.5607531,2.5607531 0 0 1 -1.97589,-0.727128 3.6672512,3.6672512 0 0 1 -0.64809,-2.418488 V 34.72378 h -1.21714 v -1.138112 l 1.21714,-0.252914 0.18969,-2.829474 h 1.58071 v 2.876896 h 2.43429 z m 9.02587,8.725529 h -1.58072 v -1.138113 a 2.1655751,2.1655751 0 0 1 -0.26873,0.363564 2.5133317,2.5133317 0 0 1 -0.53744,0.474213 4.6156783,4.6156783 0 0 1 -0.79035,0.395179 3.240459,3.240459 0 0 1 -1.02746,0.15807 3.4459516,3.4459516 0 0 1 -1.21715,-0.189685 2.2604178,2.2604178 0 0 1 -0.91681,-0.648092 2.8610883,2.8610883 0 0 1 -0.58487,-1.153919 7.1606242,7.1606242 0 0 1 -0.20549,-1.738783 v -6.670603 h 1.70717 v 6.512532 a 3.1614234,3.1614234 0 0 0 0.41098,1.802011 1.485869,1.485869 0 0 0 1.28038,0.537442 2.0391181,2.0391181 0 0 0 1.23295,-0.37937 3.904358,3.904358 0 0 0 0.80617,-0.727128 v -7.745487 h 1.70717 z m 7.06577,-8.630687 a 0.77454875,0.77454875 0 0 0 -0.26872,-0.09484 1.75459,1.75459 0 0 0 -0.56905,0 1.7229758,1.7229758 0 0 0 -1.24877,0.426792 2.6081743,2.6081743 0 0 0 -0.64809,0.948427 v 7.413538 h -1.70716 V 33.380175 h 1.5807 v 1.359412 a 3.8253224,3.8253224 0 0 1 0.28453,-0.569057 2.1339608,2.1339608 0 0 1 0.41099,-0.505828 1.8020114,1.8020114 0 0 1 0.60067,-0.363564 2.5133317,2.5133317 0 0 1 0.83777,-0.126456 2.4501032,2.4501032 0 0 1 0.58487,0 l 0.34775,0.11065 z M 46.328558,-0.87384899 a 4.995049,4.995049 0 0 0 5.37442,2.81366689 15.364519,15.364519 0 0 1 -3.50918,-3.9833936 L 44.874304,-7.33896 a 7.7138733,7.7138733 0 0 0 -2.434297,-4.315343 4.852785,4.852785 0 0 0 0.995849,-0.490021 c -2.165575,0 -4.315343,-1.106498 -5.500876,-1.106498 a 1.1064982,1.1064982 0 0 0 -1.232957,1.059077 c 0,0.663899 0.727128,1.343605 2.007505,1.343605 a 5.9908975,5.9908975 0 0 0 1.059076,-0.09484 4.9634348,4.9634348 0 0 1 1.232956,3.0507738 c 0,2.3236462 -2.782053,4.1414648 -5.579912,4.1414648 h -0.474214 a 6.3228469,6.3228469 0 0 1 -1.090691,-2.6555957 c 0,-1.8336256 1.201341,-3.3511091 1.201341,-5.1689279 a 3.493373,3.493373 0 0 0 -0.774549,-2.13396 3.0191594,3.0191594 0 0 0 0.806163,-0.980041 1.8336256,1.8336256 0 0 1 -0.774548,0.09484 c -1.343605,0 -2.450104,-0.347756 -3.509181,-0.347756 -0.616478,0 -0.774548,0.189685 -0.774548,0.363564 a 0.34775658,0.34775658 0 0 0 0,0.173877 3.5249872,3.5249872 0 0 0 -0.695514,-0.205492 5.4534555,5.4534555 0 0 0 -1.011655,-0.07904 c -1.311992,0 -1.754591,0.537442 -1.754591,0.995849 a 3.7462868,3.7462868 0 0 0 0.6639,1.659747 4.1888861,4.1888861 0 0 1 1.438447,-0.426792 c 0.679707,0 1.296184,0.663899 1.580712,1.438448 a 7.0815886,7.0815886 0 0 1 -1.011655,0.07904 7.7296803,7.7296803 0 0 1 -2.30784,-0.458406 c 0,0 0.347757,0.648092 1.059077,0.901006 a 12.740537,12.740537 0 0 0 2.560753,0.5216349 1.074884,1.074884 0 0 1 -0.505827,0.5690557 h -0.11065 a 11.634039,11.634039 0 0 1 -2.481717,-0.7429346 c 0,0.4900208 1.264568,1.5807119 2.402681,1.9758898 a 12.487623,12.487623 0 0 0 -2.68721,4.315343 h -0.458406 c -2.813667,0 -5.579912,-1.7862043 -5.579912,-4.1098504 a 5.0740846,5.0740846 0 0 1 1.106498,-2.9085094 8.0300156,8.0300156 0 0 0 1.059077,0.11065 c 1.280376,0 1.960082,-0.679706 2.023311,-1.359413 a 1.1064982,1.1064982 0 0 0 -1.248763,-1.04327 c -1.185534,0 -3.319495,1.090692 -5.500876,1.090692 a 4.9160135,4.9160135 0 0 0 0.995848,0.505827 7.7454875,7.7454875 0 0 0 -2.434297,4.3153436 l -3.319494,5.2953843 a 15.364519,15.364519 0 0 1 -3.50918,3.9833935 5.0266634,5.0266634 0 0 0 5.406034,-2.89270239 l 1.707169,-2.71882421 a 6.4967252,6.4967252 0 0 0 0.442599,1.0274626 l -3.382723,5.4060341 a 15.064183,15.064183 0 0 1 -3.50918,3.9992008 5.0266634,5.0266634 0 0 0 5.390227,-2.8294741 l 2.908509,-4.6472925 c 0.2213,0.22129974 0.442599,0.45840643 0.679706,0.66389898 L 15.852436,6.6029175 a 15.111604,15.111604 0 0 1 -3.50918,3.9833935 4.995049,4.995049 0 0 0 5.37442,-2.8136668 l 3.999201,-6.322847 c 0.26872,0.1580712 0.537442,0.3319495 0.821969,0.4742136 l -4.900205,7.7454875 a 15.111604,15.111604 0 0 1 -3.509181,3.9833937 4.995049,4.995049 0 0 0 5.37442,-2.813667 l 5.026664,-8.0458228 0.916812,0.3161423 -5.690562,9.0890925 a 15.364519,15.364519 0 0 1 -3.50918,3.9992 5.0266634,5.0266634 0 0 0 5.390227,-2.829474 l 6.054127,-9.6897622 h 0.173877 a 4.9476278,4.9476278 0 0 1 0.284528,1.5016761 c 0,3.0507736 -2.007504,5.7379841 -4.394379,7.8087161 a 1.5807118,1.5807118 0 0 0 0.6639,0.09484 5.7854049,5.7854049 0 0 0 1.043269,0 25.449459,25.449459 0 0 1 -2.35526,3.730479 19.063384,19.063384 0 0 0 -2.68721,-0.237106 c -0.774549,0 -0.869391,0.458406 -0.869391,0.853583 a 2.0549252,2.0549252 0 0 0 0.727127,1.580712 c 0.142264,-0.363563 0.426793,-0.853584 1.881047,-0.853584 h 0.142264 c -0.426792,0.474214 -1.738783,1.580712 -1.738783,2.402682 a 1.5807118,1.5807118 0 0 0 1.438448,1.422641 1.5807118,1.5807118 0 0 1 0,-0.474214 3.6672512,3.6672512 0 0 1 1.138112,-2.086539 1.2803765,1.2803765 0 0 0 0,0.347757 c 0,1.580711 0.142265,2.418488 1.201341,2.418488 A 1.738783,1.738783 0 0 0 25.3209,21.825171 2.2604178,2.2604178 0 0 1 24.609579,19.770247 v -0.790356 a 3.366916,3.366916 0 0 0 0,-0.695514 4.7421352,4.7421352 0 0 1 0.821971,0 c 0,0 1.485868,-0.110649 1.849432,0.663899 0.395178,-0.379371 0.980041,-0.885198 0.980041,-1.470062 0,-0.584863 -0.173878,-0.806163 -0.948427,-0.806163 -0.284528,0 -1.20134,0.173879 -1.960083,0.173879 a 18.96854,18.96854 0 0 1 1.912662,-2.766246 2.1813822,2.1813822 0 0 0 0.71132,1.122305 7.9035587,7.9035587 0 0 1 1.406833,-3.762094 18.96854,18.96854 0 0 1 0.268721,3.272074 c 0,4.094043 -0.995848,7.129009 -3.161423,7.698066 a 1.75459,1.75459 0 0 0 1.438447,0.901005 c 0.774549,0 1.185535,-0.853584 1.580712,-1.675554 0.2213,0.600671 0.837778,2.08654 1.454255,2.08654 0.616478,0 1.217149,-1.485869 1.438448,-2.08654 0.426792,0.82197 0.853584,1.675554 1.580712,1.675554 a 1.738783,1.738783 0 0 0 1.438448,-0.901005 c -2.08654,-0.569057 -3.066581,-3.604023 -3.066581,-7.698066 a 18.96854,18.96854 0 0 1 0.252914,-3.272074 7.9035587,7.9035587 0 0 1 1.406833,3.762094 2.3078391,2.3078391 0 0 0 0.727127,-1.122305 18.96854,18.96854 0 0 1 1.991697,2.703017 c -0.774549,0 -1.691362,-0.173878 -1.975889,-0.173878 -0.758743,0 -0.948428,0.426792 -0.948428,0.806163 0,0.37937 0.584864,1.090691 0.995849,1.470061 0.347756,-0.774548 1.849433,-0.663899 1.849433,-0.663899 a 4.6156783,4.6156783 0 0 1 0.806163,0 5.0108562,5.0108562 0 0 0 0,0.695514 v 0.790356 a 2.2604178,2.2604178 0 0 1 -0.711321,2.054925 1.738783,1.738783 0 0 0 0.995848,0.363564 c 1.04327,0 1.201342,-0.758742 1.201342,-2.418489 v -0.347757 a 3.7146726,3.7146726 0 0 1 1.138112,2.08654 2.4184889,2.4184889 0 0 1 0,0.474214 1.5807118,1.5807118 0 0 0 1.454254,-1.422642 c 0,-0.869391 -1.327797,-1.928468 -1.754589,-2.402682 h 0.158071 c 1.438448,0 1.738783,0.490021 1.881047,0.853585 a 2.0391181,2.0391181 0 0 0 0.711321,-1.580712 c 0,-0.395178 -0.07904,-0.853584 -0.869393,-0.853584 a 18.842084,18.842084 0 0 0 -2.671402,0.237106 24.975245,24.975245 0 0 1 -2.355261,-3.730478 5.7854049,5.7854049 0 0 0 1.04327,0 1.5807118,1.5807118 0 0 0 0.663899,-0.09484 C 35.943282,10.855032 33.951586,8.1836293 33.951586,5.1170485 a 5.4534555,5.4534555 0 0 1 0.26872,-1.5016762 h 0.189686 l 6.054126,9.6897627 a 5.0108562,5.0108562 0 0 0 5.279577,2.892702 15.680661,15.680661 0 0 1 -3.50918,-3.9992 l -5.690562,-9.0890925 0.916813,-0.3161423 5.121505,8.0458228 a 5.0108562,5.0108562 0 0 0 5.37442,2.829474 15.253869,15.253869 0 0 1 -3.572408,-3.9992007 l -4.963435,-7.808716 0.82197,-0.4900206 3.9992,6.4176896 a 5.0108562,5.0108562 0 0 0 5.374421,2.8136667 15.617432,15.617432 0 0 1 -3.50918,-3.9833934 L 42.076444,0.02715668 A 9.0100569,9.0100569 0 0 0 42.75615,-0.6367423 l 2.987545,4.6472925 a 5.0266634,5.0266634 0 0 0 5.390227,2.8294741 15.064183,15.064183 0 0 1 -3.50918,-3.9992008 L 44.162983,-2.5652106 A 8.488422,8.488422 0 0 0 44.62139,-3.5926732 Z M 19.187738,-7.1018533 a 5.9434761,5.9434761 0 0 1 1.991696,-4.0782357 l 0.363564,0.07904 a 5.390227,5.390227 0 0 0 -1.580712,3.2878807 c 0,2.9559309 3.161424,5.5324911 6.733832,5.5324911 v 0.7903558 a 10.733033,10.733033 0 0 0 0,1.23295518 c -3.935972,-0.0316147 -7.50838,-3.31949458 -7.50838,-6.84448178 z m 5.485069,24.2323113 h 0.07904 a 12.819572,12.819572 0 0 0 2.054925,-0.126458 2.4184889,2.4184889 0 0 1 0.474213,0 c 0.300336,0 0.521635,0 0.521635,0.379372 a 1.4542548,1.4542548 0 0 1 -0.553249,0.853584 2.5449459,2.5449459 0 0 0 -1.849433,-0.474214 c -0.410985,0 -0.806163,0 -1.20134,0.110651 h -0.09484 v 0.142263 a 5.9908975,5.9908975 0 0 1 0.07904,0.916813 v 0.806163 a 2.9085096,2.9085096 0 0 0 0.458407,1.928469 h -0.31615 c -0.60067,0 -0.774549,-0.268722 -0.774549,-1.991698 v -1.201341 a 4.7421352,4.7421352 0 0 0 -1.865239,2.79786 1.2487623,1.2487623 0 0 1 -0.569057,-0.853584 c 0,-0.490021 0.742934,-1.248762 1.580712,-2.102346 l 0.49002,-0.490021 h -0.158071 a 4.7421352,4.7421352 0 0 0 -0.82197,-0.126457 2.4975245,2.4975245 0 0 0 -1.944276,0.584863 2.0391181,2.0391181 0 0 1 -0.252913,-0.916813 0.4584064,0.4584064 0 0 1 0.11065,-0.347756 0.4584064,0.4584064 0 0 1 0.316142,0 18.842084,18.842084 0 0 1 2.829474,0.268721 25.528494,25.528494 0 0 0 2.655596,-4.267921 1.2803765,1.2803765 0 0 1 0.426792,0 c 0.410985,0 0.521635,0.284527 0.632285,0.695512 a 13.65735,13.65735 0 0 0 -2.30784,3.414338 z m 10.938526,-4.299537 a 1.0432697,1.0432697 0 0 1 0.442599,0 25.797216,25.797216 0 0 0 2.639789,4.252116 19.284683,19.284683 0 0 1 2.84528,-0.284529 0.41098505,0.41098505 0 0 1 0.331951,0.09484 0.53744199,0.53744199 0 0 1 0.11065,0.347756 2.1023466,2.1023466 0 0 1 -0.252915,0.916813 2.4975245,2.4975245 0 0 0 -1.944275,-0.60067 3.5882156,3.5882156 0 0 0 -0.821971,0.142264 h -0.173878 l 0.569057,0.569056 c 0.853584,0.853584 1.580712,1.580712 1.580712,2.086539 a 1.2487623,1.2487623 0 0 1 -0.55325,0.869392 4.6472925,4.6472925 0 0 0 -1.86524,-2.797859 v 1.20134 c 0,1.738783 -0.173878,1.991697 -0.758741,1.991697 a 0.8219701,0.8219701 0 0 1 -0.33195,0 2.8136669,2.8136669 0 0 0 0.474214,-1.928469 v -0.790356 a 6.19639,6.19639 0 0 1 0.07904,-0.932619 v -0.126457 h -0.142263 a 10.290433,10.290433 0 0 0 -1.201342,-0.11065 2.5449459,2.5449459 0 0 0 -1.849432,0.474214 1.4542548,1.4542548 0 0 1 -0.553249,-0.853585 c 0,-0.347757 0.2213,-0.379371 0.505827,-0.379371 a 2.4501032,2.4501032 0 0 1 0.490021,0 12.645694,12.645694 0 0 0 2.054926,0.126457 13.65735,13.65735 0 0 0 -2.355261,-3.572408 c 0.110649,-0.395178 0.221299,-0.679706 0.616478,-0.679706 z m -4.742136,-23.584218 a 3.6040228,3.6040228 0 0 0 -0.742934,-1.470062 2.023311,2.023311 0 0 0 -1.580712,-0.790356 3.4301444,3.4301444 0 0 0 -1.185534,0.284528 3.3353018,3.3353018 0 0 1 -0.37937,-1.043269 c 0,-0.237107 0.442599,-0.505829 1.280376,-0.505829 1.817818,0 2.90851,0.821971 2.90851,2.212996 a 3.0349665,3.0349665 0 0 1 -0.363564,1.327799 z m 0.869392,-1.707169 a 2.4184889,2.4184889 0 0 0 -0.4426,-1.059077 c 0,-0.347757 0.158072,-0.695514 0.742935,-0.410985 -0.316142,0.316142 0,0.885199 0,0.885199 0,0 0.648092,-0.300335 0.505828,-0.711321 0.869392,0.189686 0.189686,1.454256 -0.806163,1.296184 z m 3.556601,12.23470875 a 10.495926,10.495926 0 0 0 0,-1.21714795 7.4293451,7.4293451 0 0 0 0,-0.806163 c 3.540794,0 6.63899,-2.5923672 6.63899,-5.516684 a 5.390227,5.390227 0 0 0 -1.580712,-3.2878808 l 0.363564,-0.07904 a 5.8802477,5.8802477 0 0 1 1.991696,4.0782359 c 0.11065,3.4617586 -3.39853,6.71802478 -7.413538,6.79706038 z"
     id="path8"
     style="stroke-width:1.58072" />
</svg>
