<?xml version="1.0" encoding="UTF-8"?>
<svg id="ida-rgb-full-rose-vertical" xmlns="http://www.w3.org/2000/svg" width="96" height="96" viewBox="0 0 96 96">
  <g id="_1-Basics_02-Branding_ida-Logo-circle" data-name="01-Basics/02-Branding/ida-Logo-circle">
    <path id="Fill-1" d="M48,82.1715h0c-18.8725,0-34.1715-15.299-34.1715-34.1715h0c0-18.8725,15.299-34.1715,34.1715-34.1715s34.1715,15.299,34.1715,34.1715h0c0,18.8725-15.2993,34.1715-34.1715,34.1715" fill="#006" fill-rule="evenodd"/>
    <path id="Combined-Shape" d="M50.6081,35.6851v21.1761h-4.3745l-.0558-.8359c-1.1143,.6967-2.3405,1.1146-3.5385,1.1146-4.2632,0-7.2444-3.2599-7.2444-7.2444s2.9812-7.2444,7.2444-7.2444c1.0865,0,2.1453,.3065,3.1207,.8359v-7.8019h4.8481Zm9.445,6.9939c1.1146,0,2.2847,.39,3.3714,1.0309l.0281-.7802h4.4021v13.9314h-4.3466l-.0279-.7802c-1.0867,.6689-2.2847,1.0588-3.4272,1.0588-4.2629,0-7.2723-3.232-7.2723-7.2165s3.0094-7.2444,7.2723-7.2444Zm-26.776,.2506v13.9317h-4.681v-13.9317h4.681Zm27.0825,4.2076c-1.5324,0-2.7865,1.0865-2.7865,2.7862s1.254,2.7862,2.7865,2.7862,2.7862-1.0867,2.7862-2.7862-1.2538-2.7862-2.7862-2.7862Zm-17.3861-.0279c-1.5322,0-2.7862,1.0867-2.7862,2.7862s1.254,2.7862,2.7862,2.7862,2.7865-1.0865,2.7865-2.7862-1.2538-2.7862-2.7865-2.7862Zm-12.0366-12.9286c1.5324,0,2.7862,1.0867,2.7862,2.7862s-1.2538,2.7865-2.7862,2.7865-2.7865-1.0867-2.7865-2.7865,1.254-2.7862,2.7865-2.7862Z" fill="#ffdc04" fill-rule="evenodd"/>
  </g>
</svg>