<svg xmlns="http://www.w3.org/2000/svg" width="252" height="110" viewBox="0 0 252 110"><path fill="#fff" d="M0 0h252v110H0z"/><path fill="#f8d200" d="M58.82 64.34h1.69v22.43h-3.93V64.34h2.24z"/><path fill="#e30613" d="M58.82 41.8h1.69v22.54h-3.93V41.8h2.24z"/><path fill="#1d1d1b" d="M60.51 19.49v22.42h-3.93V19.49h3.93zM73.68 21.6a3 3 0 0 1-.12.84 2 2 0 0 1-.33.62 1.62 1.62 0 0 1-.48.42 2.38 2.38 0 0 1-.57.24 2.05 2.05 0 0 1 1.23.72 2.34 2.34 0 0 1 .51 1.56 2.67 2.67 0 0 1-.19 1 2 2 0 0 1-.58.78 2.69 2.69 0 0 1-1 .52 5 5 0 0 1-1.43.19h-1.87v-9.24h1.77a5.11 5.11 0 0 1 1.4.17 2.64 2.64 0 0 1 1 .47 1.8 1.8 0 0 1 .54.74 2.68 2.68 0 0 1 .12.97zm-1.17 0a1.41 1.41 0 0 0-.45-1.06 2.12 2.12 0 0 0-1.43-.41H70v3.18h.6a2 2 0 0 0 1.4-.42 1.68 1.68 0 0 0 .51-1.25zm.17 4.24a1.48 1.48 0 0 0-.49-1.18 2 2 0 0 0-1.39-.43H70v3.27h.72a2.23 2.23 0 0 0 1.49-.41 1.51 1.51 0 0 0 .47-1.21zm7.15 2.58h-1v-.72a1.3 1.3 0 0 1-.18.23 1.58 1.58 0 0 1-.34.29 1.8 1.8 0 0 1-.5.25 2.06 2.06 0 0 1-.65.11 2.27 2.27 0 0 1-.77-.13 1.37 1.37 0 0 1-.58-.41 1.81 1.81 0 0 1-.36-.72 3.72 3.72 0 0 1-.13-1.1v-4.17h1.08v4.13a2 2 0 0 0 .26 1.14.93.93 0 0 0 .81.33 1.28 1.28 0 0 0 .78-.23 2.79 2.79 0 0 0 .51-.46v-4.91h1.08zm5.15 0v-4.09a1.92 1.92 0 0 0-.27-1.16 1 1 0 0 0-.84-.36 1.37 1.37 0 0 0-.8.24 3.17 3.17 0 0 0-.5.47v4.93h-1.08v-6.4h1v.72a1.3 1.3 0 0 1 .18-.23 1.87 1.87 0 0 1 .34-.29 2 2 0 0 1 .51-.25 1.92 1.92 0 0 1 .67-.11A2.27 2.27 0 0 1 85 22a1.35 1.35 0 0 1 .59.41 2 2 0 0 1 .37.72 3.72 3.72 0 0 1 .13 1.1v4.21zm2.41-3.11a4.49 4.49 0 0 1 .25-1.63 3 3 0 0 1 .66-1 2.2 2.2 0 0 1 .9-.57 3.2 3.2 0 0 1 1-.17 2.47 2.47 0 0 1 .54.05 1.58 1.58 0 0 1 .37.11V19l1.08-.12v9.56h-1v-.68A1.7 1.7 0 0 1 91 28a1.28 1.28 0 0 1-.29.28 1.68 1.68 0 0 1-.46.24 2.16 2.16 0 0 1-.66.1 2.11 2.11 0 0 1-.86-.18 1.82 1.82 0 0 1-.71-.58 2.91 2.91 0 0 1-.49-1 5.52 5.52 0 0 1-.14-1.51zm2.53 2.31a1.33 1.33 0 0 0 .45-.07 1.62 1.62 0 0 0 .35-.17 1.48 1.48 0 0 0 .4-.39v-4a1.5 1.5 0 0 0-.34-.16 1.61 1.61 0 0 0-.49-.07 1.84 1.84 0 0 0-.69.13 1.33 1.33 0 0 0-.57.42 2 2 0 0 0-.38.76 4 4 0 0 0-.14 1.15 4.6 4.6 0 0 0 .11 1.11 2.12 2.12 0 0 0 .32.72 1.21 1.21 0 0 0 .44.4 1.25 1.25 0 0 0 .54.12zm8-3.45v1.25h-3.3a2.78 2.78 0 0 0 .48 1.66 1.52 1.52 0 0 0 1.25.54 1.79 1.79 0 0 0 .51-.07 2 2 0 0 0 .67-.35l.17-.14.4.76-.2.19a1.78 1.78 0 0 1-.36.25 2.45 2.45 0 0 1-.56.23 3 3 0 0 1-.79.09 2.74 2.74 0 0 1-1.09-.2 2 2 0 0 1-.82-.62 2.9 2.9 0 0 1-.53-1.07 5.78 5.78 0 0 1-.19-1.55 4.94 4.94 0 0 1 .2-1.48 2.9 2.9 0 0 1 .52-1 2.15 2.15 0 0 1 .78-.59 2.38 2.38 0 0 1 1-.2 1.83 1.83 0 0 1 1.44.58 2.58 2.58 0 0 1 .5 1.76zm-2-1.44a1.11 1.11 0 0 0-.93.48 2.7 2.7 0 0 0-.4 1.39H97a1.23 1.23 0 0 0 0-.19v-.28a1.71 1.71 0 0 0-.27-1 .9.9 0 0 0-.79-.36zm6.23.58a3.09 3.09 0 0 0-.39-.33 1.18 1.18 0 0 0-.73-.21 1 1 0 0 0-.65.2.62.62 0 0 0-.23.48.88.88 0 0 0 .21.6 3.38 3.38 0 0 0 .63.5l.4.24a4.08 4.08 0 0 1 1 .83 1.88 1.88 0 0 1-.15 2.44 2.08 2.08 0 0 1-1.51.52 2.58 2.58 0 0 1-.68-.08 3.24 3.24 0 0 1-.52-.19 1.69 1.69 0 0 1-.36-.23 1.75 1.75 0 0 1-.24-.23l.52-.86.19.19a2.34 2.34 0 0 0 .27.2 2 2 0 0 0 .36.17 1.53 1.53 0 0 0 .47.07 1.11 1.11 0 0 0 .74-.22.64.64 0 0 0 .25-.52 1.32 1.32 0 0 0-.06-.39.92.92 0 0 0-.18-.3 1.68 1.68 0 0 0-.29-.25l-.41-.27-.4-.25a4 4 0 0 1-.93-.82 1.7 1.7 0 0 1-.34-1.09 1.52 1.52 0 0 1 .54-1.18 1.68 1.68 0 0 1 .59-.35 2 2 0 0 1 .72-.13 2.79 2.79 0 0 1 .64.07 1.86 1.86 0 0 1 .46.19 2.27 2.27 0 0 1 .32.22l.21.2zm5.27 5.11v-4.09a2.16 2.16 0 0 0-.22-1.13.84.84 0 0 0-.74-.35 1.49 1.49 0 0 0-.47.07 1.76 1.76 0 0 0-.37.17 1.51 1.51 0 0 0-.28.22l-.2.21v4.94h-1.08v-6.41h1v.72a2.56 2.56 0 0 1 .2-.26 1.87 1.87 0 0 1 .34-.29 1.58 1.58 0 0 1 .47-.23 1.72 1.72 0 0 1 .6-.1 1.62 1.62 0 0 1 1.55.86 1.74 1.74 0 0 1 .25-.29 2 2 0 0 1 .37-.28 2.26 2.26 0 0 1 .48-.21 2.33 2.33 0 0 1 .59-.08c1.3 0 2 .76 2 2.27v4.3h-1.08v-4.13a1.79 1.79 0 0 0-.28-1.13 1 1 0 0 0-.83-.35 1.19 1.19 0 0 0-.75.23 2.73 2.73 0 0 0-.48.41v4.97zm7.14 0h-1.06v-6.37h1.08zm-.56-7.91a.71.71 0 0 1-.53-.22.85.85 0 0 1 0-1.11.74.74 0 0 1 .53-.21.7.7 0 0 1 .52.22.82.82 0 0 1 .2.54.85.85 0 0 1-.2.57.68.68 0 0 1-.52.2zm5.69 8v-4.18a1.92 1.92 0 0 0-.27-1.16 1 1 0 0 0-.84-.36 1.35 1.35 0 0 0-.8.24 4.51 4.51 0 0 0-.51.47v4.93h-1.08v-6.4h1v.72a2 2 0 0 1 .17-.23 1.64 1.64 0 0 1 .35-.29 2 2 0 0 1 .51-.25 1.87 1.87 0 0 1 .66-.11 2.28 2.28 0 0 1 .78.13 1.32 1.32 0 0 1 .58.4 1.89 1.89 0 0 1 .38.73 3.72 3.72 0 0 1 .13 1.1v4.21zm3.78 0h-1.08v-6.46h1.08zm-.47-8a.71.71 0 0 1-.53-.22.76.76 0 0 1-.2-.56.75.75 0 0 1 .2-.55.7.7 0 0 1 .53-.18.74.74 0 0 1 .53.21.85.85 0 0 1 .2.55.8.8 0 0 1-.2.56.7.7 0 0 1-.53.21zm5 2.84a2.52 2.52 0 0 0-.39-.33 1.18 1.18 0 0 0-.73-.21 1 1 0 0 0-.65.2.64.64 0 0 0-.22.48.87.87 0 0 0 .2.6 3.15 3.15 0 0 0 .64.5l.4.24a3.87 3.87 0 0 1 1 .83 1.88 1.88 0 0 1-.25 2.44 2.1 2.1 0 0 1-1.52.52 2.68 2.68 0 0 1-.68-.08 3.52 3.52 0 0 1-.51-.19 2.06 2.06 0 0 1-.37-.23l-.24-.23.52-.86.2.19a1.35 1.35 0 0 0 .27.2 1.49 1.49 0 0 0 .83.24 1.06 1.06 0 0 0 .73-.22.65.65 0 0 0 .26-.52 1.32 1.32 0 0 0-.06-.39 1.14 1.14 0 0 0-.18-.3A1.42 1.42 0 0 0 127 26l-.4-.27-.4-.25a3.88 3.88 0 0 1-.94-.82 1.65 1.65 0 0 1-.34-1.09 1.48 1.48 0 0 1 .54-1.18A1.68 1.68 0 0 1 126 22a2 2 0 0 1 .72-.13 2.73 2.73 0 0 1 .64.07 2.43 2.43 0 0 1 .47.19 2.35 2.35 0 0 1 .32.23c.09.07.15.14.21.19zm4.65-.42h-1.4v3.56a1.83 1.83 0 0 0 .17.93.68.68 0 0 0 .59.24 1.13 1.13 0 0 0 .41-.06l.26-.12.14.86a2 2 0 0 1-.32.17 1.74 1.74 0 0 1-.68.11 1.58 1.58 0 0 1-1.24-.46 2.26 2.26 0 0 1-.41-1.53v-3.7h-.78v-.72l.78-.16.12-1.79h1v1.79h1.53zm5.24 1.28v.72c0 .2 0 .37-.06.53h-3.27a2.85 2.85 0 0 0 .49 1.66 1.52 1.52 0 0 0 1.25.54 1.79 1.79 0 0 0 .51-.07 2.14 2.14 0 0 0 .39-.16 1.26 1.26 0 0 0 .28-.19l.17-.14.4.76-.2.19a1.83 1.83 0 0 1-.36.26 3 3 0 0 1-.56.22 2.67 2.67 0 0 1-.79.09 2.74 2.74 0 0 1-1.09-.2 1.93 1.93 0 0 1-.82-.62 2.83 2.83 0 0 1-.53-1.07 5.4 5.4 0 0 1-.19-1.55 4.83 4.83 0 0 1 .2-1.47 2.74 2.74 0 0 1 .52-1 2.18 2.18 0 0 1 .78-.6 2.36 2.36 0 0 1 .94-.19 1.81 1.81 0 0 1 1.44.58 2.49 2.49 0 0 1 .52 1.73zm-2-1.44a1.13 1.13 0 0 0-.92.48 2.7 2.7 0 0 0-.4 1.39h2.34a1.23 1.23 0 0 0 0-.19v-.27a1.74 1.74 0 0 0-.27-1 .91.91 0 0 0-.78-.37zm6.28.23l-.17-.07a1.47 1.47 0 0 0-.36 0 1 1 0 0 0-.79.28 1.53 1.53 0 0 0-.41.59v4.7h-1.08v-6.45h1v.87a2.53 2.53 0 0 1 .18-.37 1.35 1.35 0 0 1 .26-.32 1.11 1.11 0 0 1 .38-.22 1.37 1.37 0 0 1 .53-.08 1.17 1.17 0 0 1 .37 0l.22.06zm2.15 5.46h-1.08v-6.41h1.08zm-.53-8a.67.67 0 0 1-.53-.21.76.76 0 0 1-.2-.56.75.75 0 0 1 .2-.55.7.7 0 0 1 .53-.21.67.67 0 0 1 .52.22.73.73 0 0 1 .2.54.8.8 0 0 1-.2.57.66.66 0 0 1-.63.24zm6.67 8h-1v-.72a2 2 0 0 1-.17.23 1.58 1.58 0 0 1-.34.29 2 2 0 0 1-.5.25 2.06 2.06 0 0 1-.65.11 2.19 2.19 0 0 1-.77-.13 1.26 1.26 0 0 1-.58-.41 1.83 1.83 0 0 1-.37-.72 4.53 4.53 0 0 1-.13-1.1v-4.21h1.09v4.13a1.88 1.88 0 0 0 .26 1.14.92.92 0 0 0 .8.33 1.31 1.31 0 0 0 .79-.23 2.44 2.44 0 0 0 .5-.46v-4.91h1.09zm5 0v-4.13a2.16 2.16 0 0 0-.22-1.13.82.82 0 0 0-.73-.35 1.51 1.51 0 0 0-.48.07 1.76 1.76 0 0 0-.37.17 1.93 1.93 0 0 0-.28.22l-.2.21v4.94H152v-6.41h1v.72a1.64 1.64 0 0 1 .2-.26 1.81 1.81 0 0 1 .33-.29A1.86 1.86 0 0 1 154 22a1.8 1.8 0 0 1 .6-.1 1.61 1.61 0 0 1 1.55.86 2.37 2.37 0 0 1 .25-.29 2.24 2.24 0 0 1 .86-.49 2.32 2.32 0 0 1 .58-.08c1.3 0 1.95.76 1.95 2.27v4.3h-1.08v-4.14a1.79 1.79 0 0 0-.28-1.13 1 1 0 0 0-.83-.35 1.21 1.21 0 0 0-.75.23 2.67 2.67 0 0 0-.47.42v4.96zm-84.14 7.93H70v5.52h-1.07v-5.52h-.78v-.72l.78-.15v-1.28a2.53 2.53 0 0 1 .14-.9 1.87 1.87 0 0 1 .39-.61 1.43 1.43 0 0 1 .56-.35 2 2 0 0 1 .68-.1 1.49 1.49 0 0 1 .59.09 1.87 1.87 0 0 1 .32.15l-.23.89-.22-.11a1.09 1.09 0 0 0-.36-.06.74.74 0 0 0-.59.24 1.44 1.44 0 0 0-.2.88v1.15h1.44zm5.55 5.52h-1v-.72a.81.81 0 0 1-.17.24 1.58 1.58 0 0 1-.34.29 2.13 2.13 0 0 1-.5.25 2.06 2.06 0 0 1-.65.11 2.27 2.27 0 0 1-.77-.13 1.44 1.44 0 0 1-.58-.4 2 2 0 0 1-.37-.73 4.08 4.08 0 0 1-.12-1.1v-4.21h1.08v4.12a1.91 1.91 0 0 0 .26 1.14.94.94 0 0 0 .81.34 1.28 1.28 0 0 0 .78-.23 3.21 3.21 0 0 0 .51-.46V35.5h1.08zm-2.66-8.25a.69.69 0 0 1-.18.5.65.65 0 0 1-.91 0 .75.75 0 0 1 0-1 .65.65 0 0 1 .91 0 .68.68 0 0 1 .18.5zm2.06 0a.66.66 0 0 1-.19.5.65.65 0 0 1-.91 0 .75.75 0 0 1 0-1 .65.65 0 0 1 1.1.49zm5.07 2.79a.58.58 0 0 0-.17-.06 1.4 1.4 0 0 0-1.16.23 1.65 1.65 0 0 0-.41.6v4.69h-1.07v-6.4h1v.87a1.76 1.76 0 0 1 .17-.37 1.18 1.18 0 0 1 .27-.32 1.14 1.14 0 0 1 .38-.23 1.89 1.89 0 0 1 .53-.08 1.47 1.47 0 0 1 .36 0l.23.07zm9.41-3.74l-3 9.2h-.92l-2.91-9.2h1.26l1.75 6.11c.1.34.18.67.26 1a4 4 0 0 1 .13.77 4 4 0 0 1 .14-.77l.26-1 1.83-6.13zm4.45 5v1.24h-3.36a2.88 2.88 0 0 0 .49 1.67 1.5 1.5 0 0 0 1.25.53 1.67 1.67 0 0 0 .5-.06 1.91 1.91 0 0 0 .68-.35 1.23 1.23 0 0 0 .16-.15l.4.76a1.85 1.85 0 0 1-.2.2 1.78 1.78 0 0 1-.36.25 2.75 2.75 0 0 1-.56.23 3.39 3.39 0 0 1-.78.09 2.89 2.89 0 0 1-1.09-.2 2.11 2.11 0 0 1-.83-.62 3.25 3.25 0 0 1-.5-1.11 5.81 5.81 0 0 1-.18-1.55 4.93 4.93 0 0 1 .18-1.48 2.82 2.82 0 0 1 .52-1 2.18 2.18 0 0 1 .78-.6 2.37 2.37 0 0 1 1-.19 1.83 1.83 0 0 1 1.44.58 2.58 2.58 0 0 1 .52 1.74zm-2-1.44a1.06 1.06 0 0 0-.92.48 2.58 2.58 0 0 0-.4 1.39h2.33a1.36 1.36 0 0 0 0-.2 2.26 2.26 0 0 0 0-.27 1.69 1.69 0 0 0-.27-1 .89.89 0 0 0-.78-.37zm6.28.22a.64.64 0 0 0-.18-.06 1 1 0 0 0-.36 0 1.09 1.09 0 0 0-.79.27 1.65 1.65 0 0 0-.41.6v4.69h-1.11v-6.4h1v.87a1.76 1.76 0 0 1 .17-.37 1.18 1.18 0 0 1 .27-.32 1.14 1.14 0 0 1 .38-.23 1.82 1.82 0 0 1 .52-.08 1.5 1.5 0 0 1 .37 0l.22.07zm3.48 2l2.2 3.47h-1.29l-1.8-3h-.44v3h-1.08v-9.48l1.08-.12V38h.37l1.73-2.49h1.28zm7-.77v1.24h-3.36a2.88 2.88 0 0 0 .49 1.67 1.52 1.52 0 0 0 1.24.53 1.7 1.7 0 0 0 .51-.07 1.52 1.52 0 0 0 .4-.16 2.2 2.2 0 0 0 .28-.18 1.23 1.23 0 0 0 .16-.15l.4.76a2 2 0 0 1-.2.19 1.83 1.83 0 0 1-.36.26 2.25 2.25 0 0 1-.52.19 2.93 2.93 0 0 1-.78.1 3.1 3.1 0 0 1-1.09-.2 2.21 2.21 0 0 1-.83-.62 3 3 0 0 1-.52-1.07 5.47 5.47 0 0 1-.19-1.56 4.91 4.91 0 0 1 .19-1.47 3 3 0 0 1 .53-1 2.15 2.15 0 0 1 .77-.6 2.37 2.37 0 0 1 .95-.19 1.83 1.83 0 0 1 1.44.58 2.5 2.5 0 0 1 .52 1.74zm-2-1.44a1.07 1.07 0 0 0-.92.48 2.67 2.67 0 0 0-.4 1.39h2.34V37.68a1.69 1.69 0 0 0-.27-1 .88.88 0 0 0-.79-.45zm7 5.68v-4.17a1.9 1.9 0 0 0-.28-1.17 1 1 0 0 0-.83-.35 1.26 1.26 0 0 0-.8.24 2.85 2.85 0 0 0-.51.47v4.93h-1.08v-9.43l1.08-.12v3.8l.17-.21a1.69 1.69 0 0 1 .32-.27 2.45 2.45 0 0 1 .49-.23 2.13 2.13 0 0 1 .67-.1 1.69 1.69 0 0 1 1.33.55 2.66 2.66 0 0 1 .5 1.81v4.2zm5.51-5.45a.56.56 0 0 0-.18-.07 1.34 1.34 0 0 0-.35 0 1.1 1.1 0 0 0-.8.27 1.65 1.65 0 0 0-.41.6V42h-1.08v-6.4h1v.87a1.76 1.76 0 0 1 .17-.37 1.18 1.18 0 0 1 .27-.32 1.14 1.14 0 0 1 .38-.23 1.88 1.88 0 0 1 .52-.08 1.5 1.5 0 0 1 .37 0l.23.07zm8.07 5.45h-1v-.72a1.46 1.46 0 0 1-.17.24 1.87 1.87 0 0 1-.34.29 2.6 2.6 0 0 1-.5.25 2.08 2.08 0 0 1-.66.11A2.17 2.17 0 0 1 125 42a1.32 1.32 0 0 1-.58-.4 1.94 1.94 0 0 1-.37-.73 4.09 4.09 0 0 1-.13-1.1v-4.26H125v4.12a1.91 1.91 0 0 0 .26 1.14 1 1 0 0 0 .81.34 1.31 1.31 0 0 0 .79-.23 3.1 3.1 0 0 0 .5-.46V35.5h1.08zm5.15 0v-4.17a2 2 0 0 0-.27-1.17 1 1 0 0 0-.83-.35 1.26 1.26 0 0 0-.8.24 2.52 2.52 0 0 0-.51.47v4.93h-1.08v-6.4h1v.72a1.3 1.3 0 0 1 .18-.23 1.38 1.38 0 0 1 .34-.3 2.38 2.38 0 0 1 .51-.24 1.89 1.89 0 0 1 .67-.11 2.27 2.27 0 0 1 .77.13 1.41 1.41 0 0 1 .59.4 2 2 0 0 1 .37.73 3.72 3.72 0 0 1 .13 1.1v4.2zm2.41-3.1a4.49 4.49 0 0 1 .25-1.63 2.89 2.89 0 0 1 .65-1.06 2.27 2.27 0 0 1 .91-.56 3.2 3.2 0 0 1 1-.17 2.32 2.32 0 0 1 .53 0 1.66 1.66 0 0 1 .38.11v-3.07l1.08-.12v9.55h-1v-.68a1.76 1.76 0 0 1-.14.23 2 2 0 0 1-.3.28 2 2 0 0 1-.46.24 2.07 2.07 0 0 1-.66.1 2.14 2.14 0 0 1-.86-.18 2 2 0 0 1-.71-.57 3 3 0 0 1-.49-1 5.09 5.09 0 0 1-.17-1.5zm2.53 2.3a1.32 1.32 0 0 0 .8-.23 1.64 1.64 0 0 0 .25-.21.84.84 0 0 0 .15-.18v-4a1.44 1.44 0 0 0-.33-.16 1.39 1.39 0 0 0-.49-.07 1.85 1.85 0 0 0-.7.13 1.31 1.31 0 0 0-.57.42 2.26 2.26 0 0 0-.38.76 4 4 0 0 0-.14 1.14 4.68 4.68 0 0 0 .11 1.12 2.12 2.12 0 0 0 .32.72 1.13 1.13 0 0 0 .35.4 1.24 1.24 0 0 0 .53.12zm-70.31 11.1a4.56 4.56 0 0 1 .26-1.63 2.94 2.94 0 0 1 .65-1.05 2.34 2.34 0 0 1 .91-.57 3.18 3.18 0 0 1 1-.16 2.46 2.46 0 0 1 .54 0 2.26 2.26 0 0 1 .37.11v-3.02l1.08-.12v9.55h-1v-.68c0 .08-.09.15-.15.23a2 2 0 0 1-.3.28 1.89 1.89 0 0 1-.47.24 2 2 0 0 1-.65.09 2.11 2.11 0 0 1-.86-.18 1.83 1.83 0 0 1-.72-.57 2.94 2.94 0 0 1-.48-1 5.49 5.49 0 0 1-.18-1.52zm2.54 2.31a1.37 1.37 0 0 0 .45-.07 1.39 1.39 0 0 0 .35-.16 1.64 1.64 0 0 0 .25-.21l.15-.19V50a1.77 1.77 0 0 0-.34-.16 1.29 1.29 0 0 0-.48-.06 1.84 1.84 0 0 0-.7.12 1.42 1.42 0 0 0-.57.42 2.09 2.09 0 0 0-.38.76 4.07 4.07 0 0 0-.14 1.15 4.68 4.68 0 0 0 .11 1.12 2.18 2.18 0 0 0 .31.72 1.25 1.25 0 0 0 .46.39 1.21 1.21 0 0 0 .53.12zm5 .8H74.8V49h1.08zm-.54-7.95a.67.67 0 0 1-.53-.22.76.76 0 0 1-.2-.56.73.73 0 0 1 .2-.54.74.74 0 0 1 1 0 .73.73 0 0 1 .2.54.76.76 0 0 1-.2.56.67.67 0 0 1-.51.22zm6.78 2.39h-.8a2.17 2.17 0 0 1 .33 1.19 2.39 2.39 0 0 1-.17.92 2 2 0 0 1-.46.69 2.22 2.22 0 0 1-.71.42 2.62 2.62 0 0 1-.88.15h-.34a1.08 1.08 0 0 0-.34.21.48.48 0 0 0-.17.39.38.38 0 0 0 .15.32.8.8 0 0 0 .5.13H80a4 4 0 0 1 .84.09 2 2 0 0 1 .67.3 1.54 1.54 0 0 1 .45.53 1.88 1.88 0 0 1 .16.78 2.07 2.07 0 0 1-.23.94 2.21 2.21 0 0 1-.62.74 3.14 3.14 0 0 1-1 .48 4.29 4.29 0 0 1-1.28.17 2.34 2.34 0 0 1-1.56-.45 1.54 1.54 0 0 1-.43-1.34 1.37 1.37 0 0 1 .13-.63 1.86 1.86 0 0 1 .3-.45 1.73 1.73 0 0 1 .35-.31l.22-.18a1 1 0 0 1-.41-.9.86.86 0 0 1 .1-.44 1.34 1.34 0 0 1 .22-.31l.25-.19.2-.1a1.92 1.92 0 0 1-.8-.72 2.77 2.77 0 0 1-.09-2.24 1.9 1.9 0 0 1 1.15-1.07 2.75 2.75 0 0 1 .85-.14 2.46 2.46 0 0 1 .85.16h2zm-3 5.36a2.81 2.81 0 0 1-.5 0 1.88 1.88 0 0 0-.23.16 1.15 1.15 0 0 0-.21.23 1.48 1.48 0 0 0-.15.31 1.52 1.52 0 0 0-.06.42c0 .68.38 1 1.13 1a2.27 2.27 0 0 0 1.44-.38A1.11 1.11 0 0 0 81 56a.74.74 0 0 0-.29-.66 1.45 1.45 0 0 0-.79-.19zM80.57 51a1.24 1.24 0 0 0-.32-1 1.11 1.11 0 0 0-.77-.3 1.19 1.19 0 0 0-.8.3 1.6 1.6 0 0 0 0 2 1.2 1.2 0 0 0 1.57 0 1.25 1.25 0 0 0 .33-1zm3.86 4.42h-1.08V49h1.08zm-.53-7.95a.7.7 0 0 1-.54-.22.8.8 0 0 1-.2-.56.82.82 0 0 1 .2-.54.7.7 0 0 1 .54-.22.7.7 0 0 1 .52.22.77.77 0 0 1 .2.54.76.76 0 0 1-.2.56.69.69 0 0 1-.52.22zm4.92 2.43h-1.4v3.5a1.69 1.69 0 0 0 .18.93.67.67 0 0 0 .58.25 1.25 1.25 0 0 0 .67-.19l.15.87a1.91 1.91 0 0 1-.32.16 1.78 1.78 0 0 1-.68.12 1.6 1.6 0 0 1-1.24-.46 2.26 2.26 0 0 1-.42-1.53v-3.7h-.77v-.72l.77-.16.12-1.79h1V49H89zm.86 3.89a1.79 1.79 0 0 1 .21-.93 1.76 1.76 0 0 1 .57-.61 2.39 2.39 0 0 1 .85-.33 5.15 5.15 0 0 1 1-.11h.34v-.6a1.6 1.6 0 0 0-.26-1.21 1 1 0 0 0-.8-.31 1.41 1.41 0 0 0-.8.21 4.67 4.67 0 0 0-.51.36l-.45-.72.27-.24a3.45 3.45 0 0 1 .41-.25 2.79 2.79 0 0 1 .55-.2 2.71 2.71 0 0 1 .69-.08 1.93 1.93 0 0 1 1.5.55 2.57 2.57 0 0 1 .5 1.76v4.26h-1v-.71a2.4 2.4 0 0 1-.16.27 1.44 1.44 0 0 1-.27.28 2.14 2.14 0 0 1-.38.23 1.65 1.65 0 0 1-.54.09 1.7 1.7 0 0 1-.67-.13 1.68 1.68 0 0 1-.91-.94 2 2 0 0 1-.13-.73zm1.93.87a1.18 1.18 0 0 0 .7-.23 1 1 0 0 0 .22-.2c0-.08.11-.14.15-.2v-1.46h-.35a2.49 2.49 0 0 0-1.17.27.83.83 0 0 0-.4.78 1.09 1.09 0 0 0 .22.74.83.83 0 0 0 .63.24zm4.83-.73a1.1 1.1 0 0 0 .11.56.5.5 0 0 0 .4.16 1 1 0 0 0 .24 0h.16l.09.8-.29.11a2.25 2.25 0 0 1-.58.07 1.22 1.22 0 0 1-.88-.34 1.68 1.68 0 0 1-.33-1.29v-8l1.08-.12zm6.09-2.75v1.24h-3.35a2.91 2.91 0 0 0 .49 1.58 1.53 1.53 0 0 0 1.25.53 1.68 1.68 0 0 0 .5-.07 1.52 1.52 0 0 0 .4-.16 2.2 2.2 0 0 0 .28-.18c.07-.07.13-.11.16-.15l.4.76a2 2 0 0 1-.2.19 1.83 1.83 0 0 1-.36.26 2.51 2.51 0 0 1-.56.22 2.93 2.93 0 0 1-.78.1 3.14 3.14 0 0 1-1.09-.2 2.14 2.14 0 0 1-.83-.63 3 3 0 0 1-.52-1.06 5.47 5.47 0 0 1-.19-1.56 4.87 4.87 0 0 1 .19-1.47 3 3 0 0 1 .53-1 2.15 2.15 0 0 1 .77-.6 2.37 2.37 0 0 1 .95-.19 1.82 1.82 0 0 1 1.44.58 2.53 2.53 0 0 1 .52 1.76zm-2-1.44a1.06 1.06 0 0 0-.92.48 2.57 2.57 0 0 0-.4 1.38h2.34a1.11 1.11 0 0 0 0-.19v-.27a1.72 1.72 0 0 0-.26-1 .9.9 0 0 0-.78-.36zm7-2.73h-1v-.8h3.11V47h-1v7.57h1v.84h-3.16v-.84h1zm6.94 8.41v-4.17a2 2 0 0 0-.27-1.17 1 1 0 0 0-.84-.35 1.3 1.3 0 0 0-.8.24 3.1 3.1 0 0 0-.5.46v4.94h-1.08V49h1v.72a1 1 0 0 1 .17-.24 1.64 1.64 0 0 1 .35-.29 2.6 2.6 0 0 1 .5-.25 2.19 2.19 0 0 1 .67-.11 2.28 2.28 0 0 1 .78.13 1.38 1.38 0 0 1 .58.4 2 2 0 0 1 .38.73 4.09 4.09 0 0 1 .13 1.1v4.2zm5.39-5.52h-1.3v5.52h-1.08v-5.57h-.77v-.72l.77-.15V47.7a2.3 2.3 0 0 1 .15-.9 1.64 1.64 0 0 1 .39-.61 1.3 1.3 0 0 1 .56-.35 2.25 2.25 0 0 1 .68-.11 1.61 1.61 0 0 1 .58.1 1.83 1.83 0 0 1 .32.14l-.22.9-.22-.11a.76.76 0 0 0-.36-.06.69.69 0 0 0-.59.24 1.37 1.37 0 0 0-.2.88V49H120zm3.88.07a.51.51 0 0 0-.17-.07 1.47 1.47 0 0 0-.36 0 1.08 1.08 0 0 0-.79.27 1.65 1.65 0 0 0-.41.6v4.69h-1.08V49h1v.86a2.42 2.42 0 0 1 .18-.36 1.35 1.35 0 0 1 .26-.32 1.14 1.14 0 0 1 .38-.23 1.59 1.59 0 0 1 .53-.08 1.55 1.55 0 0 1 .37 0l.22.07zm.63 3.83a1.81 1.81 0 0 1 .22-.94 1.75 1.75 0 0 1 .57-.61 2.59 2.59 0 0 1 .85-.33 5.07 5.07 0 0 1 1-.1h.34v-.61a1.66 1.66 0 0 0-.29-1.12 1 1 0 0 0-.81-.31 1.41 1.41 0 0 0-.8.21q-.25.16-.51.36l-.45-.72.27-.24a3.45 3.45 0 0 1 .41-.25 2.79 2.79 0 0 1 .55-.2 2.71 2.71 0 0 1 .69-.08 1.93 1.93 0 0 1 1.5.55 2.47 2.47 0 0 1 .5 1.76v4.17h-1v-.71a2.4 2.4 0 0 1-.16.27 1 1 0 0 1-.27.28 2.14 2.14 0 0 1-.38.23 1.65 1.65 0 0 1-.54.09 1.7 1.7 0 0 1-.67-.13 1.75 1.75 0 0 1-.55-.38 1.58 1.58 0 0 1-.36-.56 2 2 0 0 1-.13-.73zm1.94.86a1.11 1.11 0 0 0 .4-.06 1.73 1.73 0 0 0 .3-.16 1 1 0 0 0 .21-.21l.15-.19v-1.47H127a2.53 2.53 0 0 0-1.18.27.83.83 0 0 0-.39.78 1.09 1.09 0 0 0 .22.74.81.81 0 0 0 .63.24zm6.53-4.35a3.09 3.09 0 0 0-.39-.33 1.27 1.27 0 0 0-.74-.2.92.92 0 0 0-.65.2.62.62 0 0 0-.22.48.83.83 0 0 0 .2.59 2.57 2.57 0 0 0 .64.5l.4.24a3.91 3.91 0 0 1 1 .84 1.87 1.87 0 0 1-.15 2.43 2.05 2.05 0 0 1-1.51.52 2.22 2.22 0 0 1-.68-.08 3.2 3.2 0 0 1-.52-.18 2.17 2.17 0 0 1-.6-.47l.52-.86a1.69 1.69 0 0 0 .19.19 1.39 1.39 0 0 0 .27.21 1.89 1.89 0 0 0 .36.16 1.49 1.49 0 0 0 .47.07 1.1 1.1 0 0 0 .73-.21.68.68 0 0 0 .26-.52 1.34 1.34 0 0 0-.06-.4.92.92 0 0 0-.18-.3 1.81 1.81 0 0 0-.3-.25l-.4-.27-.4-.25a4 4 0 0 1-.94-.81 1.74 1.74 0 0 1-.33-1.1 1.38 1.38 0 0 1 .14-.66 1.43 1.43 0 0 1 .39-.52 2.09 2.09 0 0 1 .59-.35 2 2 0 0 1 .73-.12 2.29 2.29 0 0 1 .64.07 1.54 1.54 0 0 1 .46.19 1.81 1.81 0 0 1 .32.22 2.12 2.12 0 0 1 .21.2zm4.64-.41H136v3.5a1.81 1.81 0 0 0 .17.93.69.69 0 0 0 .59.25 1.14 1.14 0 0 0 .41-.07 1.23 1.23 0 0 0 .26-.12l.14.87a1.91 1.91 0 0 1-.32.16 1.77 1.77 0 0 1-.68.11 1.56 1.56 0 0 1-1.24-.46 2.17 2.17 0 0 1-.41-1.53v-3.7h-.78v-.72L135 49l.12-1.79h1V49h1.53zm4 .06a.85.85 0 0 0-.17-.06 1.11 1.11 0 0 0-.36 0 1.08 1.08 0 0 0-.79.27 1.65 1.65 0 0 0-.41.6v4.69h-1.08V49h1v.86a2.42 2.42 0 0 1 .18-.36 1.35 1.35 0 0 1 .26-.32 1.14 1.14 0 0 1 .38-.23 1.59 1.59 0 0 1 .53-.08 1.55 1.55 0 0 1 .37 0l.22.07zm5.52 5.41h-1v-.72a1.37 1.37 0 0 1-.17.23 1.59 1.59 0 0 1-.34.3 2.92 2.92 0 0 1-.5.25 2.05 2.05 0 0 1-.65.1 2.18 2.18 0 0 1-.77-.12A1.43 1.43 0 0 1 143 55a1.81 1.81 0 0 1-.37-.73 4.53 4.53 0 0 1-.13-1.1V49h1.08v4.12a1.87 1.87 0 0 0 .27 1.14.93.93 0 0 0 .8.34 1.32 1.32 0 0 0 .79-.24 2.7 2.7 0 0 0 .5-.46V49H147zm4.07-3.47l2.21 3.47H152l-1.8-3h-.44v3h-1.08v-9.43l1.08-.12v5.64h.45l1.73-2.46h1.28zm5.9-2h-1.4v3.5a1.67 1.67 0 0 0 .18.93.67.67 0 0 0 .58.25 1.23 1.23 0 0 0 .42-.07 1.42 1.42 0 0 0 .25-.12l.15.87a1.91 1.91 0 0 1-.32.16 1.78 1.78 0 0 1-.68.12 1.62 1.62 0 0 1-1.25-.46 2.32 2.32 0 0 1-.41-1.53v-3.7h-.77v-.72l.77-.16.12-1.79h1V49h1.54zm5.71 5.52h-1v-.72a1.37 1.37 0 0 1-.17.23 1.59 1.59 0 0 1-.34.3 2.92 2.92 0 0 1-.5.25 2.05 2.05 0 0 1-.65.1 2.18 2.18 0 0 1-.77-.12 1.43 1.43 0 0 1-.58-.41 1.81 1.81 0 0 1-.37-.73 4.53 4.53 0 0 1-.13-1.1V49h1.08v4.12a2 2 0 0 0 .26 1.14.94.94 0 0 0 .81.34 1.29 1.29 0 0 0 .78-.24 2.47 2.47 0 0 0 .51-.46V49h1.08zm4.47-5.46a.49.49 0 0 0-.17-.06 1.11 1.11 0 0 0-.36 0 1.09 1.09 0 0 0-.79.27 1.65 1.65 0 0 0-.41.6v4.69h-1.08V49h1v.86a2.42 2.42 0 0 1 .18-.36 1.35 1.35 0 0 1 .26-.32 1.14 1.14 0 0 1 .38-.23 1.59 1.59 0 0 1 .53-.08 1.55 1.55 0 0 1 .37 0l.22.07zM46.37 27.33a3.16 3.16 0 0 0 3.4 1.78 9.72 9.72 0 0 1-2.22-2.52l-2.1-3.35a4.88 4.88 0 0 0-1.54-2.73 3.07 3.07 0 0 0 .63-.31c-1.37 0-2.73-.7-3.48-.7a.7.7 0 0 0-.78.67c0 .42.46.85 1.27.85a3.79 3.79 0 0 0 .67-.06 3.14 3.14 0 0 1 .78 1.93c0 1.47-1.76 2.62-3.53 2.62h-.3a4 4 0 0 1-.69-1.68c0-1.16.76-2.12.76-3.27a2.21 2.21 0 0 0-.49-1.35 1.91 1.91 0 0 0 .51-.62 1.16 1.16 0 0 1-.49.06c-.85 0-1.55-.22-2.22-.22-.39 0-.49.12-.49.23a.22.22 0 0 0 0 .11 2.23 2.23 0 0 0-.44-.13 3.45 3.45 0 0 0-.64-.05c-.83 0-1.11.34-1.11.63a2.37 2.37 0 0 0 .42 1.05 2.65 2.65 0 0 1 .91-.27c.43 0 .82.42 1 .91a4.48 4.48 0 0 1-.64.05 4.89 4.89 0 0 1-1.46-.29s.22.41.67.57a8.06 8.06 0 0 0 1.62.33.68.68 0 0 1-.32.36H36a7.36 7.36 0 0 1-1.57-.47c0 .31.8 1 1.52 1.25a7.9 7.9 0 0 0-1.7 2.73h-.29c-1.78 0-3.53-1.13-3.53-2.6a3.21 3.21 0 0 1 .7-1.84 5.08 5.08 0 0 0 .67.07c.81 0 1.24-.43 1.28-.86a.7.7 0 0 0-.79-.66c-.75 0-2.1.69-3.48.69a3.11 3.11 0 0 0 .63.32 4.9 4.9 0 0 0-1.54 2.73l-2.1 3.35a9.72 9.72 0 0 1-2.22 2.52A3.18 3.18 0 0 0 27 27.33l1.08-1.72a4.11 4.11 0 0 0 .28.65l-2.14 3.42A9.53 9.53 0 0 1 24 32.21a3.18 3.18 0 0 0 3.41-1.79l1.84-2.94c.14.14.28.29.43.42l-2.59 4.16a9.56 9.56 0 0 1-2.22 2.52 3.16 3.16 0 0 0 3.4-1.78l2.53-4c.17.1.34.21.52.3l-3.1 4.9A9.56 9.56 0 0 1 26 36.52a3.16 3.16 0 0 0 3.4-1.78l3.18-5.09.58.2-3.6 5.75a9.72 9.72 0 0 1-2.22 2.53 3.18 3.18 0 0 0 3.41-1.79l3.83-6.13h.11a3.13 3.13 0 0 1 .18.95c0 1.93-1.27 3.63-2.78 4.94a1 1 0 0 0 .42.06 3.66 3.66 0 0 0 .66 0 16.1 16.1 0 0 1-1.49 2.36 12.06 12.06 0 0 0-1.7-.15c-.49 0-.55.29-.55.54a1.3 1.3 0 0 0 .46 1c.09-.23.27-.54 1.19-.54h.09c-.27.3-1.1 1-1.1 1.52a1 1 0 0 0 .91.9 1 1 0 0 1 0-.3 2.32 2.32 0 0 1 .72-1.32.81.81 0 0 0 0 .22c0 1 .09 1.53.76 1.53a1.1 1.1 0 0 0 .62-.23 1.43 1.43 0 0 1-.45-1.3v-.5a2.13 2.13 0 0 0 0-.44 3 3 0 0 1 .52 0s.94-.07 1.17.42c.25-.24.62-.56.62-.93s-.11-.51-.6-.51c-.18 0-.76.11-1.24.11a12 12 0 0 1 1.21-1.75 1.38 1.38 0 0 0 .45.71 5 5 0 0 1 .89-2.38 12 12 0 0 1 .17 2.07c0 2.59-.63 4.51-2 4.87a1.11 1.11 0 0 0 .91.57c.49 0 .75-.54 1-1.06.14.38.53 1.32.92 1.32s.77-.94.91-1.32c.27.52.54 1.06 1 1.06a1.1 1.1 0 0 0 .91-.57c-1.32-.36-1.94-2.28-1.94-4.87a12 12 0 0 1 .16-2.07 5 5 0 0 1 .89 2.38 1.46 1.46 0 0 0 .46-.71 12 12 0 0 1 1.26 1.71c-.49 0-1.07-.11-1.25-.11-.48 0-.6.27-.6.51s.37.69.63.93c.22-.49 1.17-.42 1.17-.42a2.92 2.92 0 0 1 .51 0 3.17 3.17 0 0 0 0 .44v.5a1.43 1.43 0 0 1-.45 1.3 1.1 1.1 0 0 0 .63.23c.66 0 .76-.48.76-1.53v-.22a2.35 2.35 0 0 1 .72 1.32 1.53 1.53 0 0 1 0 .3 1 1 0 0 0 .92-.9c0-.55-.84-1.22-1.11-1.52h.1c.91 0 1.1.31 1.19.54a1.29 1.29 0 0 0 .45-1c0-.25-.05-.54-.55-.54a11.92 11.92 0 0 0-1.69.15 15.8 15.8 0 0 1-1.49-2.36 3.66 3.66 0 0 0 .66 0 1 1 0 0 0 .42-.06c-1.52-1.31-2.78-3-2.78-4.94a3.45 3.45 0 0 1 .17-.95h.12l3.83 6.13A3.17 3.17 0 0 0 46 38.13a9.92 9.92 0 0 1-2.22-2.53l-3.6-5.75.58-.2L44 34.74a3.17 3.17 0 0 0 3.4 1.79A9.65 9.65 0 0 1 45.14 34L42 29.06l.52-.31 2.53 4.06a3.17 3.17 0 0 0 3.4 1.78 9.88 9.88 0 0 1-2.22-2.52l-2.55-4.17a5.7 5.7 0 0 0 .43-.42L46 30.42a3.18 3.18 0 0 0 3.41 1.79 9.53 9.53 0 0 1-2.22-2.53L45 26.26a5.37 5.37 0 0 0 .29-.65zM29.2 23.39a3.76 3.76 0 0 1 1.26-2.58l.23.05a3.41 3.41 0 0 0-1 2.08c0 1.87 2 3.5 4.26 3.5v.5a6.79 6.79 0 0 0 0 .78c-2.49-.02-4.75-2.1-4.75-4.33zm3.47 15.33h.05a8.11 8.11 0 0 0 1.3-.08 1.53 1.53 0 0 1 .3 0c.19 0 .33 0 .33.24a.92.92 0 0 1-.35.54 1.61 1.61 0 0 0-1.17-.3c-.26 0-.51 0-.76.07h-.06v.09a3.79 3.79 0 0 1 .05.58v.51a1.84 1.84 0 0 0 .29 1.22h-.2c-.38 0-.49-.17-.49-1.26v-.76a3 3 0 0 0-1.18 1.77.79.79 0 0 1-.36-.54c0-.31.47-.79 1-1.33l.31-.31h-.1a3 3 0 0 0-.52-.08 1.58 1.58 0 0 0-1.23.37 1.29 1.29 0 0 1-.16-.58.29.29 0 0 1 .07-.22.29.29 0 0 1 .2 0 11.92 11.92 0 0 1 1.79.17 16.15 16.15 0 0 0 1.68-2.7.81.81 0 0 1 .27 0c.26 0 .33.18.4.44a8.64 8.64 0 0 0-1.46 2.16zM39.59 36a.66.66 0 0 1 .28 0 16.32 16.32 0 0 0 1.67 2.69 12.2 12.2 0 0 1 1.8-.18.26.26 0 0 1 .21.06.34.34 0 0 1 .07.22 1.33 1.33 0 0 1-.16.58 1.58 1.58 0 0 0-1.23-.38 2.27 2.27 0 0 0-.52.09h-.11l.36.36c.54.54 1 1 1 1.32a.79.79 0 0 1-.35.55 2.94 2.94 0 0 0-1.18-1.77v.76c0 1.1-.11 1.26-.48 1.26a.52.52 0 0 1-.21 0 1.78 1.78 0 0 0 .3-1.22v-.5a3.92 3.92 0 0 1 .05-.59v-.08H41a6.51 6.51 0 0 0-.76-.07 1.61 1.61 0 0 0-1.17.3.92.92 0 0 1-.35-.54c0-.22.14-.24.32-.24a1.55 1.55 0 0 1 .31 0 8 8 0 0 0 1.3.08 8.64 8.64 0 0 0-1.49-2.26c.07-.25.14-.43.39-.43zm-3-14.92a2.28 2.28 0 0 0-.47-.93 1.28 1.28 0 0 0-1-.5 2.17 2.17 0 0 0-.75.18 2.11 2.11 0 0 1-.24-.66c0-.15.28-.32.81-.32 1.15 0 1.84.52 1.84 1.4a1.92 1.92 0 0 1-.23.84zm.55-1.08a1.53 1.53 0 0 0-.28-.67c0-.22.1-.44.47-.26-.2.2 0 .56 0 .56s.41-.19.32-.45c.55.12.12.92-.51.82zm2.25 7.74a6.64 6.64 0 0 0 0-.77 4.7 4.7 0 0 0 0-.51c2.24 0 4.2-1.64 4.2-3.49a3.41 3.41 0 0 0-1-2.08l.23-.05a3.72 3.72 0 0 1 1.26 2.58c.07 2.19-2.15 4.25-4.69 4.3z"/></svg>