<?xml version="1.0" encoding="UTF-8" standalone="no"?>
<svg
   version="1.0"
   width="400.000000pt"
   height="400.000000pt"
   viewBox="0 0 400.000000 400.000000"
   preserveAspectRatio="xMidYMid meet"
   id="svg8"
   sodipodi:docname="org-dvz.svg"
   inkscape:version="1.1 (c68e22c387, 2021-05-23)"
   xmlns:inkscape="http://www.inkscape.org/namespaces/inkscape"
   xmlns:sodipodi="http://sodipodi.sourceforge.net/DTD/sodipodi-0.dtd"
   xmlns="http://www.w3.org/2000/svg"
   xmlns:svg="http://www.w3.org/2000/svg">
  <defs
     id="defs12" />
  <sodipodi:namedview
     id="namedview10"
     pagecolor="#ffffff"
     bordercolor="#666666"
     borderopacity="1.0"
     inkscape:pageshadow="2"
     inkscape:pageopacity="0.0"
     inkscape:pagecheckerboard="0"
     inkscape:document-units="pt"
     showgrid="false"
     inkscape:zoom="0.87"
     inkscape:cx="33.333333"
     inkscape:cy="266.66667"
     inkscape:window-width="1280"
     inkscape:window-height="650"
     inkscape:window-x="-6"
     inkscape:window-y="-6"
     inkscape:window-maximized="1"
     inkscape:current-layer="svg8" />
  <g
     transform="translate(0.000000,400.000000) scale(0.100000,-0.100000)"
     fill="#000000"
     stroke="none"
     id="g6">
    <path
       d="M0 2000 l0 -2000 2000 0 2000 0 0 2000 0 2000 -2000 0 -2000 0 0 -2000z m3150 780 l0 -410 75 7 c51 4 75 2 75 -5 0 -6 -9 -14 -21 -17 -15 -5 -17 -10 -9 -20 6 -7 7 -20 4 -30 -6 -15 -3 -17 19 -11 32 8 32 9 8 -46 -16 -39 -17 -46 -3 -66 17 -25 24 -22 -93 -47 -371 -81 -682 -212 -1095 -465 -312 -191 -451 -272 -455 -268 -3 2 9 38 27 79 44 104 286 743 283 747 -1 1 -49 -23 -107 -54 l-104 -56 -56 -207 c-31 -113 -75 -280 -98 -371 -23 -91 -45 -174 -50 -185 -9 -23 -237 -157 -246 -144 -2 5 -31 167 -64 361 -32 194 -62 367 -65 383 -6 29 -4 31 85 78 50 27 93 47 95 45 4 -4 50 -244 67 -351 6 -38 14 -65 18 -60 4 4 22 67 39 138 32 131 85 341 97 383 4 15 34 37 93 69 184 98 421 228 519 285 57 33 105 58 107 56 2 -2 -24 -75 -57 -163 -100 -266 -237 -649 -234 -653 2 -1 75 44 162 101 366 239 583 354 814 432 l95 32 0 384 0 384 -1092 3 -1093 2 0 -639 0 -640 56 26 c100 46 182 21 223 -67 13 -29 16 -85 19 -323 4 -279 3 -288 -18 -322 -19 -31 -102 -90 -195 -138 -29 -16 -25 -16 93 -17 67 0 122 -4 122 -8 0 -5 -13 -20 -28 -35 -28 -27 -29 -27 -183 -27 l-154 0 -69 -40 c-37 -22 -72 -40 -77 -40 -5 0 -9 190 -9 440 l0 440 75 37 75 37 0 693 0 693 1165 0 1165 0 0 -410z m170 -711 c-5 -16 -7 -36 -4 -43 3 -8 -8 -23 -24 -35 -22 -15 -29 -27 -25 -41 3 -11 3 -20 0 -20 -2 0 -56 -9 -118 -20 -198 -34 -407 -113 -719 -269 -396 -199 -835 -473 -1025 -641 -38 -33 -100 -81 -136 -105 -37 -24 -70 -48 -74 -55 -5 -8 -10 -8 -20 0 -9 7 -16 6 -25 -5 -15 -18 -50 -20 -50 -2 0 50 375 373 635 547 296 198 738 440 1008 551 153 63 558 183 579 172 3 -2 3 -17 -2 -34z m-45 -273 c0 -18 -7 -41 -15 -51 -11 -14 -12 -19 -2 -22 20 -7 14 -50 -10 -76 -18 -19 -40 -26 -105 -35 -94 -13 -420 -118 -653 -211 -279 -112 -603 -280 -932 -485 -137 -85 -163 -98 -213 -103 -47 -5 -57 -3 -53 8 7 22 212 184 353 278 461 309 1086 616 1430 700 115 28 116 29 160 30 39 1 40 0 40 -33z m-125 -541 l0 -325 -756 0 -756 0 51 35 51 35 670 0 670 0 0 284 c0 309 -3 291 53 295 16 1 17 -21 17 -324z"
       id="path2"
       style="fill:#009ce1;fill-opacity:1" />
    <path
       d="M908 1658 l-48 -21 0 -239 0 -239 58 31 c89 47 92 55 92 277 0 231 -2 236 -102 191z"
       id="path4"
       style="fill:#009ce1;fill-opacity:1" />
  </g>
</svg>
