<svg xmlns="http://www.w3.org/2000/svg" viewBox="0 0 535.73 104.18"><defs><style>.cls-1{fill:#2e2d2c;}.cls-2{fill:#e50943;}</style></defs><g id="Ebene_2" data-name="Ebene 2"><g id="Ebene_2-2" data-name="Ebene 2"><path class="cls-1" d="M145.81,104.08a1.11,1.11,0,0,1-.83-.28,1.16,1.16,0,0,1-.28-.84V88.3h-5.17a1,1,0,0,1-1.11-.87,1,1,0,0,1,0-.25,1,1,0,0,1,1.11-1.12H152.1a1,1,0,0,1,1.11,1.12,1,1,0,0,1-.86,1.12,1,1,0,0,1-.25,0h-5.2V103a1,1,0,0,1-.86,1.12,1.13,1.13,0,0,1-.26,0"></path><path class="cls-1" d="M161.33,104.08a1,1,0,0,1-1.12-.86,1.13,1.13,0,0,1,0-.26V87.15a1,1,0,0,1,.86-1.12,1.13,1.13,0,0,1,.26,0h9.57a1.12,1.12,0,0,1,0,2.24h-8.44v5.59h5.3a1.12,1.12,0,0,1,.21,2.23h-5.51v5.75h8.44a1.12,1.12,0,1,1,0,2.24Z"></path><path class="cls-1" d="M184.52,104.08a5.21,5.21,0,0,1-6-4.28,5,5,0,0,1,0-1.72V92A6.28,6.28,0,0,1,180,87.42,6.06,6.06,0,0,1,184.46,86h3.22a6.15,6.15,0,0,1,3.82,1A4.45,4.45,0,0,1,193,90.25a1,1,0,0,1-.21.85,1.19,1.19,0,0,1-.86.29c-.67,0-1.06-.37-1.17-1.12a2,2,0,0,0-.84-1.64,4.46,4.46,0,0,0-2.27-.43h-3.22a5.78,5.78,0,0,0-2.22.32,2,2,0,0,0-1.14,1.15,6,6,0,0,0-.34,2.26v6.12a5.82,5.82,0,0,0,.34,2.23,2,2,0,0,0,1.15,1.15,5.9,5.9,0,0,0,2.24.34h3.19a4.46,4.46,0,0,0,2.27-.43,2.07,2.07,0,0,0,.84-1.64c.11-.75.5-1.12,1.17-1.12a1.19,1.19,0,0,1,.86.29,1,1,0,0,1,.21.85A4.42,4.42,0,0,1,191.5,103a6.15,6.15,0,0,1-3.82,1Z"></path><path class="cls-1" d="M202.3,104.08a1.16,1.16,0,0,1-1.12-1.12V87.15A1.16,1.16,0,0,1,202.3,86a1.12,1.12,0,0,1,.78.34,1.11,1.11,0,0,1,.33.78v6.68h10.86V87.15a1.15,1.15,0,0,1,.33-.78,1.09,1.09,0,0,1,1.53,0l0,0a1,1,0,0,1,.34.78V103a1,1,0,0,1-.34.78,1.09,1.09,0,0,1-1.53,0l0,0a1.15,1.15,0,0,1-.33-.78V96.07H203.41V103a1.11,1.11,0,0,1-.33.78,1.12,1.12,0,0,1-.78.34"></path><path class="cls-1" d="M226.62,104.08a1,1,0,0,1-1.11-.87,1,1,0,0,1,0-.25V87.15a1,1,0,0,1,.87-1.12,1,1,0,0,1,.24,0,1.5,1.5,0,0,1,1.12.67l10.7,13.79h-.54V87.15a1.12,1.12,0,1,1,2.24,0V103a1,1,0,0,1-.86,1.12,1.13,1.13,0,0,1-.26,0,1.44,1.44,0,0,1-1.12-.67L227.2,89.63h.56V103a1,1,0,0,1-.86,1.12,1.13,1.13,0,0,1-.26,0"></path><path class="cls-1" d="M254.44,101.84h3.19a5.82,5.82,0,0,0,2.23-.34,2.05,2.05,0,0,0,1.16-1.15,6.05,6.05,0,0,0,.34-2.23V92a6.05,6.05,0,0,0-.34-2.23,2.05,2.05,0,0,0-1.16-1.15,5.47,5.47,0,0,0-2.23-.35h-3.19a5.83,5.83,0,0,0-2.23.32,2,2,0,0,0-1.15,1.14,5.72,5.72,0,0,0-.35,2.24v6.15a5.82,5.82,0,0,0,.34,2.23,2.09,2.09,0,0,0,1.15,1.15,5.9,5.9,0,0,0,2.24.34m0,2.24a5.2,5.2,0,0,1-6-4.25,5.14,5.14,0,0,1,0-1.75V91.93a5.16,5.16,0,0,1,4.23-6,5,5,0,0,1,1.77,0h3.19a5.19,5.19,0,0,1,6,4.23,5.26,5.26,0,0,1,0,1.77v6.12a5.2,5.2,0,0,1-4.25,6,5.14,5.14,0,0,1-1.75,0Z"></path><path class="cls-1" d="M273.07,104.08a1,1,0,0,1-1.12-.86,1.13,1.13,0,0,1,0-.26V87.15a1.12,1.12,0,0,1,2.24,0v14.69h7.37a1.12,1.12,0,1,1,0,2.24Z"></path><path class="cls-1" d="M294.6,101.84h3.19a5.9,5.9,0,0,0,2.24-.34,2.06,2.06,0,0,0,1.15-1.15,5.82,5.82,0,0,0,.34-2.23V92a5.82,5.82,0,0,0-.34-2.23A2.06,2.06,0,0,0,300,88.62a5.52,5.52,0,0,0-2.24-.35H294.6a5.78,5.78,0,0,0-2.22.32,2,2,0,0,0-1.16,1.14,5.91,5.91,0,0,0-.35,2.24v6.15a6.05,6.05,0,0,0,.34,2.23,2.09,2.09,0,0,0,1.15,1.15,5.9,5.9,0,0,0,2.24.34m0,2.24a5.21,5.21,0,0,1-6-4.28,5,5,0,0,1,0-1.72V91.93a5.21,5.21,0,0,1,6-5.94h3.19a5.2,5.2,0,0,1,6,4.25,5.14,5.14,0,0,1,0,1.75v6.12a5.21,5.21,0,0,1-4.28,6,5,5,0,0,1-1.72,0Z"></path><path class="cls-1" d="M317.44,104.08a5.2,5.2,0,0,1-6-4.25,5.14,5.14,0,0,1,0-1.75V92a6.19,6.19,0,0,1,1.45-4.54A6.05,6.05,0,0,1,317.37,86h3.22a6.15,6.15,0,0,1,3.82,1,4.45,4.45,0,0,1,1.53,3.26,1,1,0,0,1-.21.85,1.19,1.19,0,0,1-.85.29c-.68,0-1.07-.37-1.17-1.12a2,2,0,0,0-.85-1.64,4.46,4.46,0,0,0-2.27-.43h-3.22a5.73,5.73,0,0,0-2.21.32A2,2,0,0,0,314,89.67a6.21,6.21,0,0,0-.34,2.26v6.12a6.05,6.05,0,0,0,.34,2.23,2.09,2.09,0,0,0,1.15,1.15,5.9,5.9,0,0,0,2.24.34h3.19a5.52,5.52,0,0,0,1.94-.27,1.65,1.65,0,0,0,1-1,5.63,5.63,0,0,0,.28-2V97.41h-2.08a1.12,1.12,0,0,1-.21-2.23.74.74,0,0,1,.21,0h3.19A1,1,0,0,1,326,96a1.13,1.13,0,0,1,0,.26v2.37a4.7,4.7,0,0,1-3.83,5.43,4.77,4.77,0,0,1-1.6,0Z"></path><path class="cls-1" d="M338.9,104.08a1,1,0,0,1-1.11-.87,1,1,0,0,1,0-.25V97.54l-6.08-9.71a1,1,0,0,1,.11-1.41,1.14,1.14,0,0,1,.23-.15,1,1,0,0,1,1.41.13,1.2,1.2,0,0,1,.13.21l5.31,8.54,5.57-8.54a1.08,1.08,0,0,1,.68-.52,1,1,0,0,1,.84.23.93.93,0,0,1,.52,1.22.79.79,0,0,1-.18.29L340,97.54V103a1,1,0,0,1-.86,1.12,1,1,0,0,1-.25,0"></path><path class="cls-1" d="M523.1,10.11h2.8a1.74,1.74,0,0,0,1.26-.38,1.77,1.77,0,0,0,.37-1.29V8a1.69,1.69,0,0,0-.37-1.26,1.73,1.73,0,0,0-1.26-.37h-2.8Zm0,5.06a.81.81,0,1,1-1.62,0h0V5.51a.72.72,0,0,1,.62-.81h3.8a3.29,3.29,0,0,1,2.41.84A3.23,3.23,0,0,1,529.16,8v.46c0,1.62-.62,2.64-1.88,3.07l1.8,3.31a.7.7,0,0,1-.14,1,.53.53,0,0,1-.21.11.71.71,0,0,1-1-.17.56.56,0,0,1-.09-.17l-2.06-3.85H523.1Zm-6.76-4.65a9.2,9.2,0,0,0,1.14,4.62,8.14,8.14,0,0,0,3.14,3.13,9.87,9.87,0,0,0,9.21,0A8.28,8.28,0,0,0,533,15.14a9.91,9.91,0,0,0,0-9.23,8.31,8.31,0,0,0-3.14-3.14,9.87,9.87,0,0,0-9.21,0,8.17,8.17,0,0,0-3.14,3.14,9.17,9.17,0,0,0-1.14,4.61m19.39,0A10.74,10.74,0,0,1,534.37,16a9.89,9.89,0,0,1-3.71,3.72,11.62,11.62,0,0,1-10.87,0A9.77,9.77,0,0,1,516.07,16a11.58,11.58,0,0,1,0-10.85,9.73,9.73,0,0,1,3.72-3.73,11.62,11.62,0,0,1,10.87,0,9.7,9.7,0,0,1,3.71,3.73,10.83,10.83,0,0,1,1.36,5.42"></path><path class="cls-2" d="M156.62,59.27h3.64a30.09,30.09,0,0,0,10.6-1.62c2.87-1.09,4.3-2.74,4.3-5V26.87H156.62q-6.21,0-8.46,2.27c-1.5,1.51-2.25,4.33-2.26,8.44v11c0,4.14.75,7,2.27,8.45s4.32,2.25,8.43,2.25m0,8q-9.51,0-14.12-4.61t-4.58-14.1v-11q0-9.55,4.61-14.15t14.12-4.59h18.54V4c0-2.68,1.34-4,4-4s4,1.33,4,4V63.29q0,4-4,4t-4-4v-.67a14.41,14.41,0,0,1-5.87,3.49,29.47,29.47,0,0,1-9,1.19Z"></path><path class="cls-2" d="M213.3,26.87c-4.15-.06-7,.66-8.46,2.16s-2.25,4.34-2.25,8.55v.76h29.25v-.76q0-6.26-2.22-8.48c-1.49-1.49-4.31-2.23-8.49-2.23ZM202.59,46.41V48.7q0,6.16,2.25,8.39c1.5,1.48,4.31,2.22,8.46,2.22h7.83a21,21,0,0,0,7.22-.91,5,5,0,0,0,3.1-3.2,6.62,6.62,0,0,1,1.45-2.79,3.82,3.82,0,0,1,2.85-1,4.16,4.16,0,0,1,3.05,1.06,3.19,3.19,0,0,1,.67,3.06,12.54,12.54,0,0,1-5.57,8.88c-3.07,1.94-7.3,2.91-12.72,2.91H213.3q-9.51,0-14.12-4.59t-4.61-14V37.58q0-9.7,4.61-14.27t14.12-4.46h7.83q9.57,0,14.15,4.56t4.62,14.17v4.83q0,4-4,4Z"></path><path class="cls-1" d="M268.63,26.87q-6.21-.09-8.46,2.16t-2.27,8.55v.76h29.24v-.76q0-6.26-2.22-8.48t-8.48-2.23ZM257.9,46.41V48.7q0,6.16,2.24,8.39t8.46,2.22h7.84a20.94,20.94,0,0,0,7.21-.91,5,5,0,0,0,3.11-3.2,6.5,6.5,0,0,1,1.46-2.77,3.82,3.82,0,0,1,2.84-1,4.14,4.14,0,0,1,3.06,1.06,3.24,3.24,0,0,1,.67,3.06,12.54,12.54,0,0,1-5.64,8.84q-4.59,2.91-12.71,2.91H268.6q-9.51,0-14.12-4.59T249.9,48.66V37.58q0-9.7,4.61-14.27t14.12-4.46h7.84q9.55,0,14.14,4.56t4.59,14.17v4.83q0,4-4,4Z"></path><path class="cls-1" d="M324,26.87q-6.21-.09-8.46,2.16t-2.25,8.55v.76h29.25v-.76q0-6.26-2.22-8.48t-8.48-2.23ZM313.26,46.41V48.7q0,6.16,2.25,8.39T324,59.31h7.84A21.18,21.18,0,0,0,339,58.4a5,5,0,0,0,3.11-3.2,6.48,6.48,0,0,1,1.45-2.77,3.82,3.82,0,0,1,2.85-1,4.14,4.14,0,0,1,3.06,1.06,3.24,3.24,0,0,1,.67,3.06,12.56,12.56,0,0,1-5.64,8.84q-4.59,2.91-12.71,2.91H324q-9.51,0-14.12-4.59t-4.61-14.05V37.58q0-9.7,4.61-14.27T324,18.85h7.84q9.56,0,14.14,4.56t4.59,14.17v4.83q0,4-4,4Z"></path><path class="cls-1" d="M370.9,59.27h18.55c4.17,0,7-.74,8.48-2.24s2.22-4.32,2.22-8.46v-11c0-4.18-.74-7-2.22-8.49s-4.31-2.22-8.48-2.22H385.8a33.1,33.1,0,0,0-10.32,1.44c-2.9,1-4.43,2.47-4.59,4.53Zm-4,27.14q-4,0-4-4V22.86c0-2.68,1.34-4,4-4s4,1.33,4,4v1.19a16.49,16.49,0,0,1,6.38-3.89,26,26,0,0,1,8.53-1.31h3.64q9.56,0,14.14,4.58t4.59,14.15v11q0,9.51-4.59,14.12t-14.14,4.61H370.9v15.1c0,2.68-1.33,4-4,4"></path><path class="cls-1" d="M436.9,26.87q-6.21-.09-8.46,2.16t-2.24,8.55v.76h29.24v-.76q0-6.26-2.22-8.48t-8.48-2.23ZM426.23,46.41V48.7q0,6.16,2.24,8.39t8.46,2.22h7.84A21.27,21.27,0,0,0,452,58.4a5,5,0,0,0,3.1-3.2,6.62,6.62,0,0,1,1.46-2.77,3.82,3.82,0,0,1,2.84-1,4.14,4.14,0,0,1,3.06,1.06,3.22,3.22,0,0,1,.67,3.06,12.54,12.54,0,0,1-5.64,8.84q-4.59,2.91-12.71,2.91H436.9q-9.51,0-14.12-4.59t-4.61-14.05V37.58q0-9.7,4.61-14.27t14.12-4.46h7.84q9.56,0,14.15,4.56t4.58,14.17v4.83q0,4-4,4Z"></path><path class="cls-1" d="M479.9,67.3q-4,0-4-4V22.86q0-4,4-4t4,4v3.73a17.87,17.87,0,0,1,7.19-5.78,24.19,24.19,0,0,1,10-2q4,0,4,4c0,2.68-1.34,4-4,4q-8.26,0-12.61,3.06A10.07,10.07,0,0,0,483.9,38V63.29q0,4-4,4"></path><path class="cls-1" d="M70.08,1.61,60.52,15.47a7.78,7.78,0,0,1-6.42,3.37H32.43a4,4,0,0,0-3.26,1.72L27.5,23a2.13,2.13,0,0,0,1.75,3.33H55.9a11.31,11.31,0,0,0,9.27-4.83L78,3.14A2,2,0,0,0,77.49.36,2.06,2.06,0,0,0,76.41,0H73.1a3.67,3.67,0,0,0-3,1.59"></path><path class="cls-1" d="M14.77,40.55l2.65-3.72a5,5,0,0,1,4-2.09H61.71a8.49,8.49,0,0,0,7-3.63l20.22-29A5,5,0,0,1,93,0h3.34a3.12,3.12,0,0,1,3.13,3.11,3.16,3.16,0,0,1-.57,1.81L74.74,39.16a12.72,12.72,0,0,1-10.41,5.4H16.9a2.55,2.55,0,0,1-2.08-4"></path><path class="cls-1" d="M.72,60l2.55-3.55A5.74,5.74,0,0,1,7.9,54.1H71.22a9.93,9.93,0,0,0,8.2-4.33L111.61,2.49A5.67,5.67,0,0,1,116.29,0h4.29a4,4,0,0,1,3.27,6.22L86.18,60.81a12.76,12.76,0,0,1-10.5,5.51H4A4,4,0,0,1,.72,60"></path></g></g></svg>